<svg xmlns="http://www.w3.org/2000/svg" width="16" height="16" viewBox="0 0 16 16">
  <g id="Icon_System_Error_Alert_16px" data-name="Icon/System/Error Alert/16px" transform="translate(0.002)">
    <g id="Combined_Shape" data-name="Combined Shape">
      <path id="Combined_Shape-2" data-name="Combined Shape" d="M2.346,13.655A8,8,0,1,1,13.656,2.346,8,8,0,1,1,2.346,13.655ZM1,8A7,7,0,1,0,8,1,6.951,6.951,0,0,0,1,8ZM8.685,12.53H7.272V11.1H8.686v1.426h0Zm-.17-2.939h-1.1L7.258,3.218H8.671L8.515,9.59h0Z" transform="translate(-0.002)" fill="none"/>
      <path id="Combined_Shape-3" data-name="Combined Shape" d="M2.346,13.655A8,8,0,1,1,13.656,2.346,8,8,0,1,1,2.346,13.655ZM1,8A7,7,0,1,0,8,1,6.951,6.951,0,0,0,1,8ZM8.685,12.53H7.272V11.1H8.686v1.426h0Zm-.17-2.939h-1.1L7.258,3.218H8.671L8.515,9.59h0Z" transform="translate(-0.002)" fill="#d32f2f"/>
      <path id="Combined_Shape-4" data-name="Combined Shape" d="M2.346,13.655A8,8,0,1,1,13.656,2.346,8,8,0,1,1,2.346,13.655ZM1,8A7,7,0,1,0,8,1,6.951,6.951,0,0,0,1,8ZM8.685,12.53H7.272V11.1H8.686v1.426h0Zm-.17-2.939h-1.1L7.258,3.218H8.671L8.515,9.59h0Z" transform="translate(-0.002)" fill="none"/>
      <path id="Combined_Shape-5" data-name="Combined Shape" d="M2.346,13.655A8,8,0,1,1,13.656,2.346,8,8,0,1,1,2.346,13.655ZM1,8A7,7,0,1,0,8,1,6.951,6.951,0,0,0,1,8ZM8.685,12.53H7.272V11.1H8.686v1.426h0Zm-.17-2.939h-1.1L7.258,3.218H8.671L8.515,9.59h0Z" transform="translate(-0.002)" fill="none"/>
      <path id="Combined_Shape-6" data-name="Combined Shape" d="M2.346,13.655A8,8,0,1,1,13.656,2.346,8,8,0,1,1,2.346,13.655ZM1,8A7,7,0,1,0,8,1,6.951,6.951,0,0,0,1,8ZM8.685,12.53H7.272V11.1H8.686v1.426h0Zm-.17-2.939h-1.1L7.258,3.218H8.671L8.515,9.59h0Z" transform="translate(-0.002)" fill="none"/>
      <path id="Combined_Shape-7" data-name="Combined Shape" d="M2.346,13.655A8,8,0,1,1,13.656,2.346,8,8,0,1,1,2.346,13.655ZM1,8A7,7,0,1,0,8,1,6.951,6.951,0,0,0,1,8ZM8.685,12.53H7.272V11.1H8.686v1.426h0Zm-.17-2.939h-1.1L7.258,3.218H8.671L8.515,9.59h0Z" transform="translate(-0.002)" fill="none"/>
    </g>
  </g>
</svg>
