<svg id="Icon_Check" data-name="Icon/Check" xmlns="http://www.w3.org/2000/svg" width="15.997" height="13.552" viewBox="0 0 15.997 13.552">
  <g id="Icon_System_Checkmark_16px" data-name="Icon/System/Checkmark/16px">
    <g id="Fill_1" data-name="Fill 1" transform="translate(0.009 -1.327)">
      <path id="Fill_1-2" data-name="Fill 1" d="M5.817,13.552a1.13,1.13,0,0,1-.668-.218L0,9.567.59,8.76l5.149,3.767a.136.136,0,0,0,.188-.028L15.193,0l.8.6-9.266,12.5a1.137,1.137,0,0,1-.914.458" transform="translate(-0.009 1.327)" fill="none"/>
      <path id="Fill_1-3" data-name="Fill 1" d="M5.817,13.552a1.13,1.13,0,0,1-.668-.218L0,9.567.59,8.76l5.149,3.767a.136.136,0,0,0,.188-.028L15.193,0l.8.6-9.266,12.5a1.137,1.137,0,0,1-.914.458" transform="translate(-0.009 1.327)" fill="none"/>
      <path id="Fill_1-4" data-name="Fill 1" d="M5.817,13.552a1.13,1.13,0,0,1-.668-.218L0,9.567.59,8.76l5.149,3.767a.136.136,0,0,0,.188-.028L15.193,0l.8.6-9.266,12.5a1.137,1.137,0,0,1-.914.458" transform="translate(-0.009 1.327)" fill="none"/>
      <path id="Fill_1-5" data-name="Fill 1" d="M5.817,13.552a1.13,1.13,0,0,1-.668-.218L0,9.567.59,8.76l5.149,3.767a.136.136,0,0,0,.188-.028L15.193,0l.8.6-9.266,12.5a1.137,1.137,0,0,1-.914.458" transform="translate(-0.009 1.327)" fill="none"/>
      <path id="Fill_1-6" data-name="Fill 1" d="M5.817,13.552a1.13,1.13,0,0,1-.668-.218L0,9.567.59,8.76l5.149,3.767a.136.136,0,0,0,.188-.028L15.193,0l.8.6-9.266,12.5a1.137,1.137,0,0,1-.914.458" transform="translate(-0.009 1.327)" fill="none"/>
      <path id="Fill_1-7" data-name="Fill 1" d="M5.817,13.552a1.13,1.13,0,0,1-.668-.218L0,9.567.59,8.76l5.149,3.767a.136.136,0,0,0,.188-.028L15.193,0l.8.6-9.266,12.5a1.137,1.137,0,0,1-.914.458" transform="translate(-0.009 1.327)" fill="#1a1446"/>
    </g>
  </g>
</svg>
