<svg xmlns="http://www.w3.org/2000/svg" width="49" height="48" viewBox="0 0 49 48">
  <g id="Grupo_7616" data-name="Grupo 7616" transform="translate(0.174 0.031)">
    <g id="Grupo_2045" data-name="Grupo 2045">
      <g id="Group_21" data-name="Group 21" transform="translate(0 0)">
        <ellipse id="Oval" cx="24.5" cy="24" rx="24.5" ry="24" transform="translate(-0.174 -0.031)" fill="#f5f5f5"/>
      </g>
    </g>
    <g id="Grupo_7615" data-name="Grupo 7615" transform="translate(22407.094 22408.969)">
      <path id="Combined_Shape" data-name="Combined Shape" d="M9.862,26.44a4.181,4.181,0,0,0-8.362,0H0a5.681,5.681,0,0,1,11.362,0ZM2.108,16.277A3.574,3.574,0,1,1,5.682,19.85,3.578,3.578,0,0,1,2.108,16.277Zm1.5,0A2.074,2.074,0,1,0,5.682,14.2,2.075,2.075,0,0,0,3.608,16.277Zm8.929,3.092c-.621-.265-.621-1-.621-1.28V1.57c0-.508,0-1.57,1.589-1.57H30.3a1.31,1.31,0,0,1,1.383,1.384V12.757a.751.751,0,0,1-.75.751H21.316l1.5-1.5h7.372V1.5l-16.683,0h-.089V17.33c1.2-1.184,5.052-5.058,5.095-5.1a.749.749,0,0,1,.532-.222h1.816l-1.5,1.5h0c-.964.968-4.693,4.715-5.2,5.2a2.055,2.055,0,0,1-1.257.738A.9.9,0,0,1,12.537,19.369Zm9.6-9.854L23.581,4.43h.728L22.865,9.515Zm2.687-.71,1.622-3.386V5.395h-1.93V4.7h2.842V5.33L25.823,8.8Zm-3.408,0h-.886V7.774H18.64v-.6L20.6,4.7h.816V7.13h.693v.644h-.693V8.8h0ZM19.439,7.112V7.13h1.1V5.72h-.024ZM15.639,8.8v-.61l.887-.847c.533-.508.859-.882.859-1.367,0-.45-.285-.644-.788-.644a2.156,2.156,0,0,0-.888.2V4.885a2.625,2.625,0,0,1,1.2-.255c.931,0,1.434.45,1.434,1.22,0,.692-.4,1.154-1.084,1.764l-.55.5V8.13h1.7V8.8Z" transform="translate(-22397.844 -22398.096)" fill="none"/>
      <path id="Combined_Shape-2" data-name="Combined Shape" d="M9.862,26.44a4.181,4.181,0,0,0-8.362,0H0a5.681,5.681,0,0,1,11.362,0ZM2.108,16.277A3.574,3.574,0,1,1,5.682,19.85,3.578,3.578,0,0,1,2.108,16.277Zm1.5,0A2.074,2.074,0,1,0,5.682,14.2,2.075,2.075,0,0,0,3.608,16.277Zm8.929,3.092c-.621-.265-.621-1-.621-1.28V1.57c0-.508,0-1.57,1.589-1.57H30.3a1.31,1.31,0,0,1,1.383,1.384V12.757a.751.751,0,0,1-.75.751H21.316l1.5-1.5h7.372V1.5l-16.683,0h-.089V17.33c1.2-1.184,5.052-5.058,5.095-5.1a.749.749,0,0,1,.532-.222h1.816l-1.5,1.5h0c-.964.968-4.693,4.715-5.2,5.2a2.055,2.055,0,0,1-1.257.738A.9.9,0,0,1,12.537,19.369Zm9.6-9.854L23.581,4.43h.728L22.865,9.515Zm2.687-.71,1.622-3.386V5.395h-1.93V4.7h2.842V5.33L25.823,8.8Zm-3.408,0h-.886V7.774H18.64v-.6L20.6,4.7h.816V7.13h.693v.644h-.693V8.8h0ZM19.439,7.112V7.13h1.1V5.72h-.024ZM15.639,8.8v-.61l.887-.847c.533-.508.859-.882.859-1.367,0-.45-.285-.644-.788-.644a2.156,2.156,0,0,0-.888.2V4.885a2.625,2.625,0,0,1,1.2-.255c.931,0,1.434.45,1.434,1.22,0,.692-.4,1.154-1.084,1.764l-.55.5V8.13h1.7V8.8Z" transform="translate(-22397.844 -22398.096)" fill="none"/>
      <path id="Combined_Shape-3" data-name="Combined Shape" d="M9.862,26.44a4.181,4.181,0,0,0-8.362,0H0a5.681,5.681,0,0,1,11.362,0ZM2.108,16.277A3.574,3.574,0,1,1,5.682,19.85,3.578,3.578,0,0,1,2.108,16.277Zm1.5,0A2.074,2.074,0,1,0,5.682,14.2,2.075,2.075,0,0,0,3.608,16.277Zm8.929,3.092c-.621-.265-.621-1-.621-1.28V1.57c0-.508,0-1.57,1.589-1.57H30.3a1.31,1.31,0,0,1,1.383,1.384V12.757a.751.751,0,0,1-.75.751H21.316l1.5-1.5h7.372V1.5l-16.683,0h-.089V17.33c1.2-1.184,5.052-5.058,5.095-5.1a.749.749,0,0,1,.532-.222h1.816l-1.5,1.5h0c-.964.968-4.693,4.715-5.2,5.2a2.055,2.055,0,0,1-1.257.738A.9.9,0,0,1,12.537,19.369Zm9.6-9.854L23.581,4.43h.728L22.865,9.515Zm2.687-.71,1.622-3.386V5.395h-1.93V4.7h2.842V5.33L25.823,8.8Zm-3.408,0h-.886V7.774H18.64v-.6L20.6,4.7h.816V7.13h.693v.644h-.693V8.8h0ZM19.439,7.112V7.13h1.1V5.72h-.024ZM15.639,8.8v-.61l.887-.847c.533-.508.859-.882.859-1.367,0-.45-.285-.644-.788-.644a2.156,2.156,0,0,0-.888.2V4.885a2.625,2.625,0,0,1,1.2-.255c.931,0,1.434.45,1.434,1.22,0,.692-.4,1.154-1.084,1.764l-.55.5V8.13h1.7V8.8Z" transform="translate(-22397.844 -22398.096)" fill="none"/>
      <path id="Combined_Shape-4" data-name="Combined Shape" d="M9.862,26.44a4.181,4.181,0,0,0-8.362,0H0a5.681,5.681,0,0,1,11.362,0ZM2.108,16.277A3.574,3.574,0,1,1,5.682,19.85,3.578,3.578,0,0,1,2.108,16.277Zm1.5,0A2.074,2.074,0,1,0,5.682,14.2,2.075,2.075,0,0,0,3.608,16.277Zm8.929,3.092c-.621-.265-.621-1-.621-1.28V1.57c0-.508,0-1.57,1.589-1.57H30.3a1.31,1.31,0,0,1,1.383,1.384V12.757a.751.751,0,0,1-.75.751H21.316l1.5-1.5h7.372V1.5l-16.683,0h-.089V17.33c1.2-1.184,5.052-5.058,5.095-5.1a.749.749,0,0,1,.532-.222h1.816l-1.5,1.5h0c-.964.968-4.693,4.715-5.2,5.2a2.055,2.055,0,0,1-1.257.738A.9.9,0,0,1,12.537,19.369Zm9.6-9.854L23.581,4.43h.728L22.865,9.515Zm2.687-.71,1.622-3.386V5.395h-1.93V4.7h2.842V5.33L25.823,8.8Zm-3.408,0h-.886V7.774H18.64v-.6L20.6,4.7h.816V7.13h.693v.644h-.693V8.8h0ZM19.439,7.112V7.13h1.1V5.72h-.024ZM15.639,8.8v-.61l.887-.847c.533-.508.859-.882.859-1.367,0-.45-.285-.644-.788-.644a2.156,2.156,0,0,0-.888.2V4.885a2.625,2.625,0,0,1,1.2-.255c.931,0,1.434.45,1.434,1.22,0,.692-.4,1.154-1.084,1.764l-.55.5V8.13h1.7V8.8Z" transform="translate(-22397.844 -22398.096)" fill="none"/>
      <path id="Combined_Shape-5" data-name="Combined Shape" d="M9.862,26.44a4.181,4.181,0,0,0-8.362,0H0a5.681,5.681,0,0,1,11.362,0ZM2.108,16.277A3.574,3.574,0,1,1,5.682,19.85,3.578,3.578,0,0,1,2.108,16.277Zm1.5,0A2.074,2.074,0,1,0,5.682,14.2,2.075,2.075,0,0,0,3.608,16.277Zm8.929,3.092c-.621-.265-.621-1-.621-1.28V1.57c0-.508,0-1.57,1.589-1.57H30.3a1.31,1.31,0,0,1,1.383,1.384V12.757a.751.751,0,0,1-.75.751H21.316l1.5-1.5h7.372V1.5l-16.683,0h-.089V17.33c1.2-1.184,5.052-5.058,5.095-5.1a.749.749,0,0,1,.532-.222h1.816l-1.5,1.5h0c-.964.968-4.693,4.715-5.2,5.2a2.055,2.055,0,0,1-1.257.738A.9.9,0,0,1,12.537,19.369Zm9.6-9.854L23.581,4.43h.728L22.865,9.515Zm2.687-.71,1.622-3.386V5.395h-1.93V4.7h2.842V5.33L25.823,8.8Zm-3.408,0h-.886V7.774H18.64v-.6L20.6,4.7h.816V7.13h.693v.644h-.693V8.8h0ZM19.439,7.112V7.13h1.1V5.72h-.024ZM15.639,8.8v-.61l.887-.847c.533-.508.859-.882.859-1.367,0-.45-.285-.644-.788-.644a2.156,2.156,0,0,0-.888.2V4.885a2.625,2.625,0,0,1,1.2-.255c.931,0,1.434.45,1.434,1.22,0,.692-.4,1.154-1.084,1.764l-.55.5V8.13h1.7V8.8Z" transform="translate(-22397.844 -22398.096)" fill="none"/>
      <path id="Fill_11" data-name="Fill 11" d="M11.362,5.681h-1.5a4.181,4.181,0,0,0-8.362,0H0a5.681,5.681,0,0,1,11.362,0" transform="translate(-22397.844 -22377.336)" fill="#1a1446"/>
      <path id="Fill_13" data-name="Fill 13" d="M3.574,7.147A3.573,3.573,0,1,1,7.148,3.574,3.577,3.577,0,0,1,3.574,7.147Zm0-5.647A2.073,2.073,0,1,0,5.648,3.574,2.076,2.076,0,0,0,3.574,1.5Z" transform="translate(-22395.736 -22385.393)" fill="#1a1446"/>
      <g id="Grupo_7556" data-name="Grupo 7556" transform="translate(-31.051 -11.037)">
        <path id="Rectángulo_1386" data-name="Rectángulo 1386" d="M.709.709v6.38H5.671V.709H.709M.709,0H6.38V7.8H0V.709A.709.709,0,0,1,.709,0Z" transform="translate(-22352.838 -22382.182)" fill="#1a1446"/>
        <g id="ID_2_" transform="translate(-22354.877 -22385.059)">
          <path id="Trazado_5509" data-name="Trazado 5509" d="M10.33,9.83V8.886h7.053v1H10.33Zm0-2.5v-1h7.053v1Zm0-2.5v-1h7.053v1ZM17.828,0a1.968,1.968,0,0,1,1.944,1.944v9.664a1.968,1.968,0,0,1-1.944,1.944H0v-1H17.828a.936.936,0,0,0,.944-.944V1.944A.936.936,0,0,0,17.828,1H1.944A.936.936,0,0,0,1,1.944v9.719H0V1.944A1.968,1.968,0,0,1,1.944,0Z" fill="#1a1446"/>
        </g>
      </g>
    </g>
  </g>
</svg>
