<svg xmlns="http://www.w3.org/2000/svg" width="180" height="180" viewBox="0 0 180 180">
  <g id="Wedding_Ring_CMYK_Yellow" transform="translate(-1.8 -1.3)">
    <path id="Trazado_5523" data-name="Trazado 5523" d="M91.8,181.3a90,90,0,1,0-90-90,89.941,89.941,0,0,0,90,90" transform="translate(0 0)" fill="#ffdb00"/>
    <g id="Grupo_7568" data-name="Grupo 7568" transform="translate(52.111 40.57)">
      <path id="Trazado_5524" data-name="Trazado 5524" d="M71.732,35.342A25.967,25.967,0,0,1,75.086,48.2a29.068,29.068,0,0,1-58.137,0c0-13.416,9.5-25.714,22.919-28.509L38.75,14.1A34.7,34.7,0,1,0,80.117,48.2,31.008,31.008,0,0,0,76.2,32.547Z" transform="translate(-10.8 18.183)" fill="#1a1444"/>
      <path id="Trazado_5525" data-name="Trazado 5525" d="M65.932,23.278c0-1.118-.559-1.677-1.677-2.236L40.776,8.744a2.539,2.539,0,0,0-2.8,0L17.3,21.6a2.042,2.042,0,0,0-1.118,2.8l9.5,35.217a1.952,1.952,0,0,0,.559,1.118,4.238,4.238,0,0,0,2.236,1.118H29.6l2.236-.559L22.888,29.427l33.54,17.329L32.95,55.142l1.677,5.59L64.255,50.111a3.074,3.074,0,0,0,1.677-2.8Zm-41.366.559,12.857-7.826L38.54,31.1Zm17.888-8.385,14.534,7.826L43.571,32.223Zm5.59,20.124,12.3-7.826L60.9,41.726Z" transform="translate(12.888 -8.325)" fill="#1a1444"/>
    </g>
  </g>
</svg>
