<svg xmlns="http://www.w3.org/2000/svg" width="15.9" height="15.9" viewBox="0 0 15.9 15.9">
  <g id="Combined_Shape" data-name="Combined Shape" transform="translate(-0.05 -0.05)">
    <path id="Combined_Shape-2" data-name="Combined Shape" d="M0,7.95A7.95,7.95,0,1,1,7.95,15.9,7.958,7.958,0,0,1,0,7.95Zm1,0A6.95,6.95,0,1,0,7.95,1,6.958,6.958,0,0,0,1,7.95Zm5.059,4.691v-1H7.45V6.962H6.208v-1H7.95a.5.5,0,0,1,.5.5v5.178H9.84v1ZM6.97,3.878a.812.812,0,1,1,.812.813A.812.812,0,0,1,6.97,3.878Z" transform="translate(0.05 0.05)" fill="none"/>
    <path id="Combined_Shape-3" data-name="Combined Shape" d="M0,7.95A7.95,7.95,0,1,1,7.95,15.9,7.958,7.958,0,0,1,0,7.95Zm1,0A6.95,6.95,0,1,0,7.95,1,6.958,6.958,0,0,0,1,7.95Zm5.059,4.691v-1H7.45V6.962H6.208v-1H7.95a.5.5,0,0,1,.5.5v5.178H9.84v1ZM6.97,3.878a.812.812,0,1,1,.812.813A.812.812,0,0,1,6.97,3.878Z" transform="translate(0.05 0.05)" fill="none"/>
    <path id="Combined_Shape-4" data-name="Combined Shape" d="M0,7.95A7.95,7.95,0,1,1,7.95,15.9,7.958,7.958,0,0,1,0,7.95Zm1,0A6.95,6.95,0,1,0,7.95,1,6.958,6.958,0,0,0,1,7.95Zm5.059,4.691v-1H7.45V6.962H6.208v-1H7.95a.5.5,0,0,1,.5.5v5.178H9.84v1ZM6.97,3.878a.812.812,0,1,1,.812.813A.812.812,0,0,1,6.97,3.878Z" transform="translate(0.05 0.05)" fill="#0061f5"/>
    <path id="Combined_Shape-5" data-name="Combined Shape" d="M0,7.95A7.95,7.95,0,1,1,7.95,15.9,7.958,7.958,0,0,1,0,7.95Zm1,0A6.95,6.95,0,1,0,7.95,1,6.958,6.958,0,0,0,1,7.95Zm5.059,4.691v-1H7.45V6.962H6.208v-1H7.95a.5.5,0,0,1,.5.5v5.178H9.84v1ZM6.97,3.878a.812.812,0,1,1,.812.813A.812.812,0,0,1,6.97,3.878Z" transform="translate(0.05 0.05)" fill="none"/>
    <path id="Combined_Shape-6" data-name="Combined Shape" d="M0,7.95A7.95,7.95,0,1,1,7.95,15.9,7.958,7.958,0,0,1,0,7.95Zm1,0A6.95,6.95,0,1,0,7.95,1,6.958,6.958,0,0,0,1,7.95Zm5.059,4.691v-1H7.45V6.962H6.208v-1H7.95a.5.5,0,0,1,.5.5v5.178H9.84v1ZM6.97,3.878a.812.812,0,1,1,.812.813A.812.812,0,0,1,6.97,3.878Z" transform="translate(0.05 0.05)" fill="none"/>
    <path id="Combined_Shape-7" data-name="Combined Shape" d="M0,7.95A7.95,7.95,0,1,1,7.95,15.9,7.958,7.958,0,0,1,0,7.95Zm1,0A6.95,6.95,0,1,0,7.95,1,6.958,6.958,0,0,0,1,7.95Zm5.059,4.691v-1H7.45V6.962H6.208v-1H7.95a.5.5,0,0,1,.5.5v5.178H9.84v1ZM6.97,3.878a.812.812,0,1,1,.812.813A.812.812,0,0,1,6.97,3.878Z" transform="translate(0.05 0.05)" fill="none"/>
  </g>
</svg>
