<svg id="Group" xmlns="http://www.w3.org/2000/svg" xmlns:xlink="http://www.w3.org/1999/xlink" width="150" height="131.879" viewBox="0 0 150 131.879">
  <defs>
    <clipPath id="clip-path">
      <circle id="Mask" cx="47.596" cy="47.596" r="47.596" transform="translate(0 0)" fill="#ffd000"/>
    </clipPath>
  </defs>
  <!-- <path id="Oval" d="M17.483,33.928c3.27,0-7.112-14.9-5.636-28.006A5.921,5.921,0,1,0,0,5.923C-.3,13.27,14.213,33.928,17.483,33.928Z" transform="matrix(0.978, -0.208, 0.208, 0.978, 1.408, 81.225)" fill="#ffd000"/> -->
  <!-- <circle id="Oval-2" data-name="Oval" cx="6.544" cy="6.544" r="6.544" transform="translate(0 52.349)" fill="#ffd000"/>
  <circle id="Oval-3" data-name="Oval" cx="6.544" cy="6.544" r="6.544" transform="translate(6.04 28.188)" fill="#ffd000"/> -->
  <ellipse id="Oval-4" data-name="Oval" cx="66.443" cy="65.94" rx="66.443" ry="65.94" transform="translate(17.114 0)" fill="none"/>
  <g id="Path_white_Mask" data-name="Path + white Mask" transform="translate(30.288 20.192)">
    <circle id="Mask-2" data-name="Mask" cx="47.596" cy="47.596" r="47.596" transform="translate(0 0)" fill="#ffd000"/>
    <g id="Path_white_Mask-2" data-name="Path + white Mask" clip-path="url(#clip-path)">
      <path id="Path" d="M53.537,81.846c-.42.3-5-14.208-5.414-13.895-2.387-6.191-4.27-11.234-4.621-12.758a22.7,22.7,0,0,0,4.793-8.6,14.784,14.784,0,0,0-.342-9.286c-.717-2.3-2.168-4.459-2.071-5.914a3.746,3.746,0,0,1,1.13-2.366,2.635,2.635,0,0,0-2.423-2.349,14.091,14.091,0,0,0-2.89.216c-.248-.441-.731-.361-.368-1.944.554-2.392,5.112-3.519,8.834-4.969,4.72-1.839,7.358-5.259,7.523-10.752A8.713,8.713,0,0,0,52.819.949c-.557,1.607-2.857,3.778-4.454,4.656a8.168,8.168,0,0,1-5.343.847A6.144,6.144,0,0,0,39.888,0c-.679,1.246-3.244,2.978-7.1,2.855s-4.1-1.03-9.518-1.016C15.564,1.853,9.181,6.519,8.4,13.394a15.657,15.657,0,0,0,2.484,10.147,25.726,25.726,0,0,0-3.619,3.55,2.929,2.929,0,0,0-3.928-.309A5.2,5.2,0,0,1,3.5,30.074C3.18,31.206.366,36.695.047,41.135-.5,48.641,3.81,53.729,7.424,55.184a3.45,3.45,0,0,0-.4,3.552A2.725,2.725,0,0,0,9.679,60.12a3.674,3.674,0,0,0-.646,3.868c.646,1.614,2.489,3.958,4.093,3.958a29.381,29.381,0,0,0,.885,5.888,6.114,6.114,0,0,0-1.043,3.787,4.059,4.059,0,0,0,2.965,3.958A10.292,10.292,0,0,0,17.2,84.268a9.4,9.4,0,0,0,2.267,2.24,7.463,7.463,0,0,0,4.178,1.462,16.443,16.443,0,0,0,3.737-.164C27.423,88.267,56.061,80.066,53.537,81.846Z" transform="translate(18.75 8.654)" fill="#1a1446"/>
      <path id="white" d="M39.074,181.722h0c1.9-3.821,3.405-13.147,3.283-20.364-.023-1.305-.149-3.034-.294-5.035-.366-5.035-.867-11.93.028-16.886,1.365-7.49,3.469-11.54,8.338-16.049a15.023,15.023,0,0,1,10.236-3.931,18.1,18.1,0,0,1,4.737.658L71.328,131.3a13.582,13.582,0,0,0-2.545-.232,12.677,12.677,0,0,0-7.615,2.32c-5.446,4.193-7.063,9.8-7.907,17.482-.851,7.868-2.761,14.5-5.523,19.183a111.524,111.524,0,0,1-6.773,9.231C40.192,180.271,39.526,181.121,39.074,181.722Zm14.772-15.651h0c1.456-3.288,3.37-12.739,3.865-15.626q.074-.43.148-.887l0-.009c.639-3.873,1.513-9.178,5.9-12.815a9.927,9.927,0,0,1,6-1.915,6.148,6.148,0,0,1,1.667.194l6.7,13.7c.54,1.3,2.211,1.88,3.627,1.88.09,0,.179,0,.265-.008C75.694,152.64,59.8,160.27,53.845,166.071Zm32.229-16.659h0l-2.4-8.264,5.5-7.722a.408.408,0,0,1-.06.023,52.9,52.9,0,0,1-7.408,2.19l-.092.011a5.754,5.754,0,0,1-.748.054,2.663,2.663,0,0,1-2.871-2.2,16.389,16.389,0,0,1-.461-2.54c0-.626.5-1.419,1.073-1.419a.593.593,0,0,1,.121.012,2.984,2.984,0,0,0,.57.057,1.978,1.978,0,0,0,1.115-.293l1.153-1.548c-.439-.055-.915-.147-1.335-.228a8.169,8.169,0,0,0-1.216-.185,4.342,4.342,0,0,0-1.221.346c-.313.116-.637.237-.959.329-.535-.4-1.219-1.028-.986-1.843H82.2l.122-.736a21.575,21.575,0,0,0-4.549-1.532l-.111,0a2.13,2.13,0,0,0-1.695.693v-1.206l3.6-3.039-3.725-1.53-2.043.364,1.327-8.43-.706-1.47L70.791,111.5l-.113-4.784c.117-.914,1.831-2.584,3.173-3.358l-.24-2.9c-.4.247-.826.468-1.233.682a7.42,7.42,0,0,0-2.777,2.052c-.886,1.225-1.918,3.012-1.805,4.571a4.5,4.5,0,0,1-1.076-3.934,6.853,6.853,0,0,1,2.636-4.255,12.979,12.979,0,0,1-.118-6.146,13.678,13.678,0,0,1,4.2-6.974,15.182,15.182,0,0,1,4.726-2.938,18.814,18.814,0,0,1,6.806-1.232h.069a25.432,25.432,0,0,1,9.9,2.431,45.94,45.94,0,0,1,9.087,5.39,60.315,60.315,0,0,1,7.809,6.946c1.747,1.889,2.884,3.508,3.04,4.33.014.076.03.155.047.237a3.841,3.841,0,0,1,.08,1.931c-.717-.964-5.839-5.854-5.891-5.9l-3.241,4.118,6.124,5.4a7.566,7.566,0,0,1-4.142,1.274,9.138,9.138,0,0,1-1.141-.075,14.232,14.232,0,0,1-5.645-2.688c-2.235-1.647-3.546-3.384-3.6-4.767a37.9,37.9,0,0,0-12.887-2.777l-.327,0a30.607,30.607,0,0,0-7.689,1.2,1.917,1.917,0,0,1-.624.106,3.353,3.353,0,0,1-1.539-.508c-.181-.095-.368-.192-.553-.272l-.383.24,2.38,3.679a.93.93,0,0,0,.431.091,5.654,5.654,0,0,0,1.513-.361,14.992,14.992,0,0,1,2.015-.542,15.661,15.661,0,0,1,2.759-.233,16.887,16.887,0,0,1,8.173,2.018A88.831,88.831,0,0,1,100.7,111.5a4.357,4.357,0,0,0,2.936,1.292,2.055,2.055,0,0,0,1.389-.457,2.25,2.25,0,0,1,1.407-.591.831.831,0,0,1,.642.241.751.751,0,0,1,.157.61c-.024.229-.068.465-.11.694-.16.867-.312,1.685.553,2.056a1.253,1.253,0,0,0,.519.12,2.018,2.018,0,0,0,1.25-.669,5.487,5.487,0,0,1,.505-.409,2.218,2.218,0,0,1,1.236-.429,2.085,2.085,0,0,1,1.049.309,15.946,15.946,0,0,1-3.48,4.216,7.03,7.03,0,0,1-3.891,1.688,2.308,2.308,0,0,1-.8-.131l-.838,2.056,6.006,13.852c.594,1.2,1,2.087,1.33,2.8a29.663,29.663,0,0,0,1.736,3.367,134.847,134.847,0,0,0-26.225,7.3Zm-1.367-43.99a7.5,7.5,0,0,0-1.575.163,21.1,21.1,0,0,0-5.118,2.056v2.166a8.628,8.628,0,0,1,3.356,2.771l1.9-.481-.812-1.322.007,0a7.735,7.735,0,0,1,2.629-.6c.167-.008.335-.013.5-.013a5.419,5.419,0,0,1,3.469.959l4.135-.975.546-.871C91.916,107.835,88.318,105.422,84.707,105.422Zm11.43-16.336-2.271,5.9a61.2,61.2,0,0,1,9.362,4.725l3-4.234C105.133,94.371,98.091,90.068,96.137,89.086Zm-21.249.489c-.73.729-4.314,4.567-3.132,8.553a29.836,29.836,0,0,1,5.163-3.858ZM85.13,93.06h0c1.571,0,4.388.127,5.609.978l1.077-6.273a17.152,17.152,0,0,0-7.206-1.572A12.425,12.425,0,0,0,77.889,88l1.918,5.551A26.749,26.749,0,0,1,85.13,93.06Zm32.946,47.985h0q-.125-.228-.249-.45l-.007-.014a37.994,37.994,0,0,1-2.795-5.939l-.019-.035c-.6-1.1-3.6-6.659-4.213-7.815a4.248,4.248,0,0,1,.1-4.449,20.494,20.494,0,0,1,5.3-4.959l.386,8.225c.222.421,5.424,10.321,7.7,15.434-.657-.013-1.362-.019-2.157-.019-.722,0-1.431.005-2.118.011C119.335,141.04,118.7,141.045,118.075,141.045ZM38.85,134.263h0c-.132-.923-2.66-8.915-4.982-16.087-2.3-7.093-4.9-14.939-5.1-15.314-.241-.426-1.02-14.174-2.254-39.758-.036-.753-.059-1.227-.066-1.357l2.083-1.515v-.4c-1.481-.08-3.277-.635-3.843-1.536l-.56-11.957c-2.137-.169-4.255-.851-5.035-1.621a3.3,3.3,0,0,1-.647-4.406,14.735,14.735,0,0,0,6.719,1.612,3.278,3.278,0,0,1,1.341.805,5.484,5.484,0,0,0,1.064.727c.477.181,1.147.523,1.739.825.355.181.689.351.919.454.485.211.809,1.262.983,1.827.02.066.038.124.055.175.127.388,19.466,50.708,19.761,51.23.324.551,1.428,8.832,1.52,9.629a58.283,58.283,0,0,0,3.525,8.032c-.053,0-.109,0-.184,0-2.568,0-6.66,1.479-10.013,4.782C42.383,123.806,39.49,131.123,38.85,134.263ZM63.256,107.41h0l-6.461-4.469a26.714,26.714,0,0,0-.267-3.827c-.064-.553-.124-1.073-.155-1.471-.011-.093-.037-.242-.062-.386l0-.01c-.01-.058-.02-.115-.028-.166l8.1,3.92a7.215,7.215,0,0,0-1.227,3.16,7.642,7.642,0,0,0,.04,2.832c.02.134.041.272.062.415Zm57.112-3.023v0c-.116-2-2.486-7.591-3.932-8.8l24.91-11.074-20.977,19.873Zm-9.357-14.3h0l-.387-.317c-1.653-1.357-6.042-4.959-8.214-5.741L123.74,62.868,111.011,90.081ZM92.842,79.8h0c-1.486-.751-5.327-1.216-8.033-1.216a14.833,14.833,0,0,0-2.506.175L86.773,45.3l6.069,34.5ZM24.758,71.623h0a13.558,13.558,0,0,0-5.5-1.766c-.07,0-.13,0-.184,0a10.808,10.808,0,0,0-5.681,1.612,2.017,2.017,0,0,1-.481-2.57c.449-1.1,1.093-1.29,1.12-1.3l-.6-10.507.014-.01a26.314,26.314,0,0,1,3.723-2.332,1.621,1.621,0,0,0,1.17-1.673A20.333,20.333,0,0,1,22.6,57.418a8.567,8.567,0,0,1,1.6,4.574,28.338,28.338,0,0,1-.247,5.782l.139.119A2.708,2.708,0,0,1,25.316,69.7a2.31,2.31,0,0,1-.343,1.478l-.021.041c-.063.124-.128.252-.194.4ZM10.012,58.041h0C9,57.419,7.948,55.163,7.694,54.178a7.626,7.626,0,0,1,3.617-3.11c-.252-.019-.549-.029-.883-.029a20.77,20.77,0,0,0-3.28.274,6.586,6.586,0,0,1-.4-3.752l1.593.07-.879-2.185a16.881,16.881,0,0,1,3.4-1.933,13.607,13.607,0,0,1,4.363-1.268,6.952,6.952,0,0,1,.16,2.4,1.5,1.5,0,0,1-.717,1.13c-.477.23-2.081,1.061-2.1,1.069.355-.028.846-.042,1.42-.042.943,0,1.969.039,2.439.092.719.081,1.04.24,1.04.97a3.512,3.512,0,0,1-.59,1.994c-.319.447-1.109.485-1.743.516-.179.009-.347.017-.488.034a3.625,3.625,0,0,1,.416,1.789,1.319,1.319,0,0,1-.882,1.373,14.508,14.508,0,0,0-2.231,1.276,7.511,7.511,0,0,0-1.946,3.192ZM28.251,40.655h0c-1.1-1.04-3.684-3.477-9.3-3.491h-.06c-4.324,0-7.886,1.746-8.378,3.314-.3-1.947-.17-3.421,1.389-4.748A10.671,10.671,0,0,1,18.647,33.6c4.414,0,6.756,1.365,7.759,2.179a5.123,5.123,0,0,1,1.845,4.871ZM.977,37.812c-.107-.3-.22-.574-.33-.84A6.224,6.224,0,0,1,.02,33.746a10.193,10.193,0,0,1,1.359-3.822,16.933,16.933,0,0,0,.815-1.736c.5-1.319.226-3.613-.332-4.172a.9.9,0,0,1,.2-.02,4.475,4.475,0,0,1,1.123.242l.1.029a5.111,5.111,0,0,0,1.385.271,1.681,1.681,0,0,0,.4-.044A2.672,2.672,0,0,0,7.209,22.7c.6-1.3,1.291-1.916,2.227-1.983.033,0,.069,0,.105,0a6.6,6.6,0,0,1,1.424.266l.243.061a8.9,8.9,0,0,0,2.088.326,3.687,3.687,0,0,0,.814-.085A5.8,5.8,0,0,0,16.6,19.828a3.713,3.713,0,0,1,2.321-1.192,4.692,4.692,0,0,1,2.618,1.307A5.351,5.351,0,0,0,23.793,21.2a2.111,2.111,0,0,0,.3.021,7.588,7.588,0,0,0,2.378-.613l.056-.021a8,8,0,0,1,2.5-.633,2.065,2.065,0,0,1,.765.133c.916.344,1.069,1.244,1.23,2.2a3.152,3.152,0,0,0,.852,2.046,2.181,2.181,0,0,0,1.383.384,10.764,10.764,0,0,0,2.749-.52c.288-.083.515-.148.672-.178-.058.27-.12.521-.18.764a7.205,7.205,0,0,0-.3,2.365,13.554,13.554,0,0,0,1,2.908,13.887,13.887,0,0,1,1.077,3.186l0,.086a8.885,8.885,0,0,1-.475,4.332c-.092-2.6-1.762-5.218-4.584-7.172-3.38-2.339-8.2-3.634-13.946-3.745-.244,0-.491-.007-.734-.007-6.694,0-12.233,1.782-15.2,4.89A8.138,8.138,0,0,0,.979,37.811ZM24.572,16.7c-.043,0-.088,0-.132,0a4.352,4.352,0,0,1-2.372-1.468,4.829,4.829,0,0,0-2.829-1.661c-.071,0-.143,0-.212,0a6.191,6.191,0,0,0-4.01,1.679,3.383,3.383,0,0,1-1.626.9l-.056,0c-.921,0-2.159-1.31-2.746-2.083A8.918,8.918,0,0,1,9.2,8.515,8.166,8.166,0,0,1,11.45,3.443,9.443,9.443,0,0,1,17.936.665c.235-.013.487-.019.749-.019A38.554,38.554,0,0,1,23.025.99a26.99,26.99,0,0,0,2.778.243c1.7,0,6.241-.42,7.305-1.234a4.067,4.067,0,0,1-.344,3.793A19.813,19.813,0,0,0,39.3,5.147c.1,0,.192,0,.277-.007,3.282-.16,6.537-1.984,7.67-3.582a6.012,6.012,0,0,1-1.419,5.754c-1.839,1.648-5.1,2.841-7.979,3.894a21.916,21.916,0,0,0-4.675,2.051c-1.785,1.321-2.477,2.07-2.965,3.207-.08-.08-.157-.159-.231-.236a2.3,2.3,0,0,0-1.772-.966,2.875,2.875,0,0,0-.3.017,3.609,3.609,0,0,0-1.641.734A3,3,0,0,1,24.572,16.7Z" transform="translate(24.519 15.865)" fill="#fffffe"/>
    </g>
  </g>
</svg>
