<svg xmlns="http://www.w3.org/2000/svg" width="48" height="48" viewBox="0 0 48 48">
  <g id="Grupo_2046" data-name="Grupo 2046" transform="translate(-0.039 0.031)">
    <g id="Group_21" data-name="Group 21" transform="translate(0.266 0)">
      <circle id="Oval" cx="24" cy="24" r="24" transform="translate(-0.226 -0.031)" fill="#f5f5f5"/>
    </g>
    <g id="ID_2_" transform="translate(10.092 14.41)">
      <path id="Trazado_5509" data-name="Trazado 5509" d="M14.573,13.868V12.536h9.95v1.41h-9.95Zm0-3.526V8.932h9.95v1.41Zm0-3.526V5.406h9.95v1.41ZM3.447,14.26a4.074,4.074,0,0,1,8.148,0H10.5a2.977,2.977,0,0,0-5.955,0h-1.1Zm2.9-7.287A1.254,1.254,0,1,0,7.6,5.72,1.192,1.192,0,0,0,6.346,6.973Zm3.6,0A2.357,2.357,0,0,1,7.6,9.324a2.309,2.309,0,0,1-2.35-2.35A2.309,2.309,0,0,1,7.6,4.623,2.309,2.309,0,0,1,9.95,6.973ZM25.15,0a2.776,2.776,0,0,1,2.742,2.742V16.375a2.776,2.776,0,0,1-2.742,2.742H0v-1.41H25.15a1.321,1.321,0,0,0,1.332-1.332V2.742A1.321,1.321,0,0,0,25.15,1.41H2.742A1.321,1.321,0,0,0,1.41,2.742V16.453H0V2.742A2.776,2.776,0,0,1,2.742,0Z" fill="#1a1446"/>
    </g>
  </g>
</svg>
