<svg id="_32px" data-name="32px" xmlns="http://www.w3.org/2000/svg" width="24" height="24" viewBox="0 0 24 24">
  <g id="Sad_32px" data-name="Sad 32px">
    <path id="Sad_32px-2" data-name="Sad 32px" d="M0,12A12,12,0,1,1,12,24,12.013,12.013,0,0,1,0,12Zm1.075,0A10.925,10.925,0,1,0,12,1.075,10.938,10.938,0,0,0,1.075,12Zm4.661,6.971a.563.563,0,0,1-.234-.759,7.769,7.769,0,0,1,6.512-3.988A7.7,7.7,0,0,1,18.5,18.214a.563.563,0,0,1-1,.521,6.561,6.561,0,0,0-5.487-3.386A6.631,6.631,0,0,0,6.5,18.738a.563.563,0,0,1-.76.232Zm8.9-9.436a1.5,1.5,0,1,1,1.5,1.5A1.5,1.5,0,0,1,14.635,9.534Zm-8.271,0a1.5,1.5,0,1,1,1.5,1.5A1.5,1.5,0,0,1,6.364,9.534Z" fill="none"/>
    <path id="Sad_32px-3" data-name="Sad 32px" d="M0,12A12,12,0,1,1,12,24,12.013,12.013,0,0,1,0,12Zm1.075,0A10.925,10.925,0,1,0,12,1.075,10.938,10.938,0,0,0,1.075,12Zm4.661,6.971a.563.563,0,0,1-.234-.759,7.769,7.769,0,0,1,6.512-3.988A7.7,7.7,0,0,1,18.5,18.214a.563.563,0,0,1-1,.521,6.561,6.561,0,0,0-5.487-3.386A6.631,6.631,0,0,0,6.5,18.738a.563.563,0,0,1-.76.232Zm8.9-9.436a1.5,1.5,0,1,1,1.5,1.5A1.5,1.5,0,0,1,14.635,9.534Zm-8.271,0a1.5,1.5,0,1,1,1.5,1.5A1.5,1.5,0,0,1,6.364,9.534Z" fill="none"/>
    <path id="Sad_32px-4" data-name="Sad 32px" d="M0,12A12,12,0,1,1,12,24,12.013,12.013,0,0,1,0,12Zm1.075,0A10.925,10.925,0,1,0,12,1.075,10.938,10.938,0,0,0,1.075,12Zm4.661,6.971a.563.563,0,0,1-.234-.759,7.769,7.769,0,0,1,6.512-3.988A7.7,7.7,0,0,1,18.5,18.214a.563.563,0,0,1-1,.521,6.561,6.561,0,0,0-5.487-3.386A6.631,6.631,0,0,0,6.5,18.738a.563.563,0,0,1-.76.232Zm8.9-9.436a1.5,1.5,0,1,1,1.5,1.5A1.5,1.5,0,0,1,14.635,9.534Zm-8.271,0a1.5,1.5,0,1,1,1.5,1.5A1.5,1.5,0,0,1,6.364,9.534Z" fill="none"/>
    <path id="Sad_32px-5" data-name="Sad 32px" d="M0,12A12,12,0,1,1,12,24,12.013,12.013,0,0,1,0,12Zm1.075,0A10.925,10.925,0,1,0,12,1.075,10.938,10.938,0,0,0,1.075,12Zm4.661,6.971a.563.563,0,0,1-.234-.759,7.769,7.769,0,0,1,6.512-3.988A7.7,7.7,0,0,1,18.5,18.214a.563.563,0,0,1-1,.521,6.561,6.561,0,0,0-5.487-3.386A6.631,6.631,0,0,0,6.5,18.738a.563.563,0,0,1-.76.232Zm8.9-9.436a1.5,1.5,0,1,1,1.5,1.5A1.5,1.5,0,0,1,14.635,9.534Zm-8.271,0a1.5,1.5,0,1,1,1.5,1.5A1.5,1.5,0,0,1,6.364,9.534Z" fill="none"/>
    <path id="Sad_32px-6" data-name="Sad 32px" d="M0,12A12,12,0,1,1,12,24,12.013,12.013,0,0,1,0,12Zm1.075,0A10.925,10.925,0,1,0,12,1.075,10.938,10.938,0,0,0,1.075,12Zm4.661,6.971a.563.563,0,0,1-.234-.759,7.769,7.769,0,0,1,6.512-3.988A7.7,7.7,0,0,1,18.5,18.214a.563.563,0,0,1-1,.521,6.561,6.561,0,0,0-5.487-3.386A6.631,6.631,0,0,0,6.5,18.738a.563.563,0,0,1-.76.232Zm8.9-9.436a1.5,1.5,0,1,1,1.5,1.5A1.5,1.5,0,0,1,14.635,9.534Zm-8.271,0a1.5,1.5,0,1,1,1.5,1.5A1.5,1.5,0,0,1,6.364,9.534Z" fill="none"/>
    <path id="Sad_32px-7" data-name="Sad 32px" d="M0,12A12,12,0,1,1,12,24,12.013,12.013,0,0,1,0,12Zm1.075,0A10.925,10.925,0,1,0,12,1.075,10.938,10.938,0,0,0,1.075,12Zm4.661,6.971a.563.563,0,0,1-.234-.759,7.769,7.769,0,0,1,6.512-3.988A7.7,7.7,0,0,1,18.5,18.214a.563.563,0,0,1-1,.521,6.561,6.561,0,0,0-5.487-3.386A6.631,6.631,0,0,0,6.5,18.738a.563.563,0,0,1-.76.232Zm8.9-9.436a1.5,1.5,0,1,1,1.5,1.5A1.5,1.5,0,0,1,14.635,9.534Zm-8.271,0a1.5,1.5,0,1,1,1.5,1.5A1.5,1.5,0,0,1,6.364,9.534Z" fill="#1a1446"/>
  </g>
</svg>
