<svg xmlns="http://www.w3.org/2000/svg" width="76.348" height="65.441" viewBox="0 0 76.348 65.441">
  <g id="Button_OutlinesButton_Secondary_SM" data-name="Button/OutlinesButton/Secondary/SM" opacity="0.1">
    <g id="Rectangle" fill="none">
      <path d="M6.544,0H69.8c3.614,0,6.544,2.442,6.544,5.453V59.988c0,3.012-2.93,5.453-6.544,5.453H6.544C2.93,65.441,0,63,0,59.988V5.453C0,2.442,2.93,0,6.544,0Z" stroke="none"/>
      <path d="M 6.544105529785156 3 C 5.511703491210938 3 4.525108337402344 3.328739166259766 3.8372802734375 3.901939392089844 C 3.524581909179688 4.162513732910156 2.999992370605469 4.710586547851562 2.999992370605469 5.453426361083984 L 2.999992370605469 59.98768615722656 C 2.999992370605469 60.73051452636719 3.524581909179688 61.2785758972168 3.8372802734375 61.53916168212891 C 4.525108337402344 62.11235046386719 5.511703491210938 62.44110107421875 6.544105529785156 62.44110107421875 L 69.80385589599609 62.44110107421875 C 70.83624267578125 62.44110107421875 71.82284545898438 62.11236190795898 72.51068115234375 61.53916168212891 C 72.82337951660156 61.27858734130859 73.34795379638672 60.73051452636719 73.34795379638672 59.98768615722656 L 73.34795379638672 5.453426361083984 C 73.34795379638672 4.710575103759766 72.82337951660156 4.162513732910156 72.51068115234375 3.901939392089844 C 71.82284545898438 3.328739166259766 70.83625793457031 3 69.80385589599609 3 L 6.544105529785156 3 M 6.544105529785156 0 L 69.80385589599609 0 C 73.41805267333984 0 76.34795379638672 2.441574096679688 76.34795379638672 5.453426361083984 L 76.34795379638672 59.98768615722656 C 76.34795379638672 62.99951171875 73.41805267333984 65.44110107421875 69.80385589599609 65.44110107421875 L 6.544105529785156 65.44110107421875 C 2.929908752441406 65.44110107421875 -7.62939453125e-06 62.99951171875 -7.62939453125e-06 59.98768615722656 L -7.62939453125e-06 5.453426361083984 C -7.62939453125e-06 2.441574096679688 2.929908752441406 0 6.544105529785156 0 Z" stroke="none" fill="#1e1045"/>
    </g>
  </g>
</svg>
