<svg xmlns="http://www.w3.org/2000/svg" width="48" height="48" viewBox="0 0 48 48">
  <g id="Grupo_7611" data-name="Grupo 7611" transform="translate(21231 14997)">
    <circle id="Oval_Copy_6" data-name="Oval Copy 6" cx="24" cy="24" r="24" transform="translate(-21231 -14997)" fill="#99e5ea"/>
    <g id="Icon_Account_Experience_Printer_16px" data-name="Icon/Account Experience/Printer/16px" transform="translate(-21217.908 -14984.05)">
      <g id="Combined_Shape" data-name="Combined Shape" transform="translate(0.908 0.049)">
        <path id="Combined_Shape-2" data-name="Combined Shape" d="M4.843,21.626V13.311h-1.2v-1.36H15.71v1.36H14.593V15.4h2.161a1.28,1.28,0,0,0,1.278-1.278V7.283a1.28,1.28,0,0,0-1.278-1.278H2.639A1.279,1.279,0,0,0,1.36,7.283v6.842A1.28,1.28,0,0,0,2.639,15.4H3.785v1.36H2.639A2.641,2.641,0,0,1,0,14.125V7.283A2.642,2.642,0,0,1,2.639,4.644h.475V2.174A2.176,2.176,0,0,1,5.287,0h8.621a2.177,2.177,0,0,1,2.173,2.174V3.191h-1.36V2.174a.815.815,0,0,0-.813-.814H5.287a.814.814,0,0,0-.813.814v2.47H16.753a2.642,2.642,0,0,1,2.638,2.639v6.842a2.641,2.641,0,0,1-2.638,2.638H14.593v4.863Zm1.36-1.36h7.03V13.311H6.2Zm1.05-1.129v-1.36h4.989v1.36Zm0-2.94v-1.36h4.989V16.2Zm6.569-7.058V7.713H16.24V9.139Z" fill="none"/>
        <path id="Combined_Shape-3" data-name="Combined Shape" d="M4.843,21.626V13.311h-1.2v-1.36H15.71v1.36H14.593V15.4h2.161a1.28,1.28,0,0,0,1.278-1.278V7.283a1.28,1.28,0,0,0-1.278-1.278H2.639A1.279,1.279,0,0,0,1.36,7.283v6.842A1.28,1.28,0,0,0,2.639,15.4H3.785v1.36H2.639A2.641,2.641,0,0,1,0,14.125V7.283A2.642,2.642,0,0,1,2.639,4.644h.475V2.174A2.176,2.176,0,0,1,5.287,0h8.621a2.177,2.177,0,0,1,2.173,2.174V3.191h-1.36V2.174a.815.815,0,0,0-.813-.814H5.287a.814.814,0,0,0-.813.814v2.47H16.753a2.642,2.642,0,0,1,2.638,2.639v6.842a2.641,2.641,0,0,1-2.638,2.638H14.593v4.863Zm1.36-1.36h7.03V13.311H6.2Zm1.05-1.129v-1.36h4.989v1.36Zm0-2.94v-1.36h4.989V16.2Zm6.569-7.058V7.713H16.24V9.139Z" fill="none"/>
        <path id="Combined_Shape-4" data-name="Combined Shape" d="M4.843,21.626V13.311h-1.2v-1.36H15.71v1.36H14.593V15.4h2.161a1.28,1.28,0,0,0,1.278-1.278V7.283a1.28,1.28,0,0,0-1.278-1.278H2.639A1.279,1.279,0,0,0,1.36,7.283v6.842A1.28,1.28,0,0,0,2.639,15.4H3.785v1.36H2.639A2.641,2.641,0,0,1,0,14.125V7.283A2.642,2.642,0,0,1,2.639,4.644h.475V2.174A2.176,2.176,0,0,1,5.287,0h8.621a2.177,2.177,0,0,1,2.173,2.174V3.191h-1.36V2.174a.815.815,0,0,0-.813-.814H5.287a.814.814,0,0,0-.813.814v2.47H16.753a2.642,2.642,0,0,1,2.638,2.639v6.842a2.641,2.641,0,0,1-2.638,2.638H14.593v4.863Zm1.36-1.36h7.03V13.311H6.2Zm1.05-1.129v-1.36h4.989v1.36Zm0-2.94v-1.36h4.989V16.2Zm6.569-7.058V7.713H16.24V9.139Z" fill="none"/>
        <path id="Combined_Shape-5" data-name="Combined Shape" d="M4.843,21.626V13.311h-1.2v-1.36H15.71v1.36H14.593V15.4h2.161a1.28,1.28,0,0,0,1.278-1.278V7.283a1.28,1.28,0,0,0-1.278-1.278H2.639A1.279,1.279,0,0,0,1.36,7.283v6.842A1.28,1.28,0,0,0,2.639,15.4H3.785v1.36H2.639A2.641,2.641,0,0,1,0,14.125V7.283A2.642,2.642,0,0,1,2.639,4.644h.475V2.174A2.176,2.176,0,0,1,5.287,0h8.621a2.177,2.177,0,0,1,2.173,2.174V3.191h-1.36V2.174a.815.815,0,0,0-.813-.814H5.287a.814.814,0,0,0-.813.814v2.47H16.753a2.642,2.642,0,0,1,2.638,2.639v6.842a2.641,2.641,0,0,1-2.638,2.638H14.593v4.863Zm1.36-1.36h7.03V13.311H6.2Zm1.05-1.129v-1.36h4.989v1.36Zm0-2.94v-1.36h4.989V16.2Zm6.569-7.058V7.713H16.24V9.139Z" fill="none"/>
        <path id="Combined_Shape-6" data-name="Combined Shape" d="M4.843,21.626V13.311h-1.2v-1.36H15.71v1.36H14.593V15.4h2.161a1.28,1.28,0,0,0,1.278-1.278V7.283a1.28,1.28,0,0,0-1.278-1.278H2.639A1.279,1.279,0,0,0,1.36,7.283v6.842A1.28,1.28,0,0,0,2.639,15.4H3.785v1.36H2.639A2.641,2.641,0,0,1,0,14.125V7.283A2.642,2.642,0,0,1,2.639,4.644h.475V2.174A2.176,2.176,0,0,1,5.287,0h8.621a2.177,2.177,0,0,1,2.173,2.174V3.191h-1.36V2.174a.815.815,0,0,0-.813-.814H5.287a.814.814,0,0,0-.813.814v2.47H16.753a2.642,2.642,0,0,1,2.638,2.639v6.842a2.641,2.641,0,0,1-2.638,2.638H14.593v4.863Zm1.36-1.36h7.03V13.311H6.2Zm1.05-1.129v-1.36h4.989v1.36Zm0-2.94v-1.36h4.989V16.2Zm6.569-7.058V7.713H16.24V9.139Z" fill="none"/>
        <path id="Combined_Shape-7" data-name="Combined Shape" d="M4.843,21.626V13.311h-1.2v-1.36H15.71v1.36H14.593V15.4h2.161a1.28,1.28,0,0,0,1.278-1.278V7.283a1.28,1.28,0,0,0-1.278-1.278H2.639A1.279,1.279,0,0,0,1.36,7.283v6.842A1.28,1.28,0,0,0,2.639,15.4H3.785v1.36H2.639A2.641,2.641,0,0,1,0,14.125V7.283A2.642,2.642,0,0,1,2.639,4.644h.475V2.174A2.176,2.176,0,0,1,5.287,0h8.621a2.177,2.177,0,0,1,2.173,2.174V3.191h-1.36V2.174a.815.815,0,0,0-.813-.814H5.287a.814.814,0,0,0-.813.814v2.47H16.753a2.642,2.642,0,0,1,2.638,2.639v6.842a2.641,2.641,0,0,1-2.638,2.638H14.593v4.863Zm1.36-1.36h7.03V13.311H6.2Zm1.05-1.129v-1.36h4.989v1.36Zm0-2.94v-1.36h4.989V16.2Zm6.569-7.058V7.713H16.24V9.139Z" fill="#1a1446"/>
      </g>
    </g>
  </g>
</svg>
