<svg xmlns="http://www.w3.org/2000/svg" width="89.462" height="89.462" viewBox="0 0 89.462 89.462">
  <g id="Grupo_5094" data-name="Grupo 5094" transform="translate(-688.5 -296.5)">
    <g id="Grupo_4567" data-name="Grupo 4567" transform="translate(0.5 0.5)">
      <circle id="Oval" cx="44.231" cy="44.231" r="44.231" transform="translate(688.5 296.5)" fill="#f0fbfc" stroke="#99e5ea" stroke-width="1"/>
    </g>
    <g id="_16px" data-name="16px" transform="translate(705 315)">
      <g id="Combined_Shape" data-name="Combined Shape" transform="translate(0 0)">
        <path id="Combined_Shape-2" data-name="Combined Shape" d="M9.627,51.622a9.488,9.488,0,0,1-8.277-4.8,9.781,9.781,0,0,1-.1-9.742L19.68,4.89A9.505,9.505,0,0,1,36.306,4.9l14.27,24.926-3.03,1.763L33.267,6.653a6.02,6.02,0,0,0-10.548-.013L4.289,38.83a6.237,6.237,0,0,0,.082,6.205,6.026,6.026,0,0,0,5.256,3.057H46.356a6.064,6.064,0,0,0,5.3-3.114,6.129,6.129,0,0,0,.031-6.148l-1.521-2.679,3.033-1.76,1.521,2.679a9.637,9.637,0,0,1-.035,9.669,9.521,9.521,0,0,1-8.33,4.884ZM31.021,42.6H25.44V36.724h5.584V42.6ZM29.969,31.847h-3.5l-.57-15.88h4.6l-.526,15.877v0Z" transform="translate(0 0)" fill="none"/>
        <path id="Combined_Shape-3" data-name="Combined Shape" d="M9.627,51.622a9.488,9.488,0,0,1-8.277-4.8,9.781,9.781,0,0,1-.1-9.742L19.68,4.89A9.505,9.505,0,0,1,36.306,4.9l14.27,24.926-3.03,1.763L33.267,6.653a6.02,6.02,0,0,0-10.548-.013L4.289,38.83a6.237,6.237,0,0,0,.082,6.205,6.026,6.026,0,0,0,5.256,3.057H46.356a6.064,6.064,0,0,0,5.3-3.114,6.129,6.129,0,0,0,.031-6.148l-1.521-2.679,3.033-1.76,1.521,2.679a9.637,9.637,0,0,1-.035,9.669,9.521,9.521,0,0,1-8.33,4.884ZM31.021,42.6H25.44V36.724h5.584V42.6ZM29.969,31.847h-3.5l-.57-15.88h4.6l-.526,15.877v0Z" transform="translate(0 0)" fill="none"/>
        <path id="Combined_Shape-4" data-name="Combined Shape" d="M9.627,51.622a9.488,9.488,0,0,1-8.277-4.8,9.781,9.781,0,0,1-.1-9.742L19.68,4.89A9.505,9.505,0,0,1,36.306,4.9l14.27,24.926-3.03,1.763L33.267,6.653a6.02,6.02,0,0,0-10.548-.013L4.289,38.83a6.237,6.237,0,0,0,.082,6.205,6.026,6.026,0,0,0,5.256,3.057H46.356a6.064,6.064,0,0,0,5.3-3.114,6.129,6.129,0,0,0,.031-6.148l-1.521-2.679,3.033-1.76,1.521,2.679a9.637,9.637,0,0,1-.035,9.669,9.521,9.521,0,0,1-8.33,4.884ZM31.021,42.6H25.44V36.724h5.584V42.6ZM29.969,31.847h-3.5l-.57-15.88h4.6l-.526,15.877v0Z" transform="translate(0 0)" fill="none"/>
        <path id="Combined_Shape-5" data-name="Combined Shape" d="M9.627,51.622a9.488,9.488,0,0,1-8.277-4.8,9.781,9.781,0,0,1-.1-9.742L19.68,4.89A9.505,9.505,0,0,1,36.306,4.9l14.27,24.926-3.03,1.763L33.267,6.653a6.02,6.02,0,0,0-10.548-.013L4.289,38.83a6.237,6.237,0,0,0,.082,6.205,6.026,6.026,0,0,0,5.256,3.057H46.356a6.064,6.064,0,0,0,5.3-3.114,6.129,6.129,0,0,0,.031-6.148l-1.521-2.679,3.033-1.76,1.521,2.679a9.637,9.637,0,0,1-.035,9.669,9.521,9.521,0,0,1-8.33,4.884ZM31.021,42.6H25.44V36.724h5.584V42.6ZM29.969,31.847h-3.5l-.57-15.88h4.6l-.526,15.877v0Z" transform="translate(0 0)" fill="none"/>
        <path id="Combined_Shape-6" data-name="Combined Shape" d="M9.627,51.622a9.488,9.488,0,0,1-8.277-4.8,9.781,9.781,0,0,1-.1-9.742L19.68,4.89A9.505,9.505,0,0,1,36.306,4.9l14.27,24.926-3.03,1.763L33.267,6.653a6.02,6.02,0,0,0-10.548-.013L4.289,38.83a6.237,6.237,0,0,0,.082,6.205,6.026,6.026,0,0,0,5.256,3.057H46.356a6.064,6.064,0,0,0,5.3-3.114,6.129,6.129,0,0,0,.031-6.148l-1.521-2.679,3.033-1.76,1.521,2.679a9.637,9.637,0,0,1-.035,9.669,9.521,9.521,0,0,1-8.33,4.884ZM31.021,42.6H25.44V36.724h5.584V42.6ZM29.969,31.847h-3.5l-.57-15.88h4.6l-.526,15.877v0Z" transform="translate(0 0)" fill="none"/>
        <path id="Combined_Shape-7" data-name="Combined Shape" d="M9.627,51.622a9.488,9.488,0,0,1-8.277-4.8,9.781,9.781,0,0,1-.1-9.742L19.68,4.89A9.505,9.505,0,0,1,36.306,4.9l14.27,24.926-3.03,1.763L33.267,6.653a6.02,6.02,0,0,0-10.548-.013L4.289,38.83a6.237,6.237,0,0,0,.082,6.205,6.026,6.026,0,0,0,5.256,3.057H46.356a6.064,6.064,0,0,0,5.3-3.114,6.129,6.129,0,0,0,.031-6.148l-1.521-2.679,3.033-1.76,1.521,2.679a9.637,9.637,0,0,1-.035,9.669,9.521,9.521,0,0,1-8.33,4.884ZM31.021,42.6H25.44V36.724h5.584V42.6ZM29.969,31.847h-3.5l-.57-15.88h4.6l-.526,15.877v0Z" transform="translate(0 0)" fill="#1a1446"/>
      </g>
    </g>
  </g>
</svg>
