<svg xmlns="http://www.w3.org/2000/svg" xmlns:xlink="http://www.w3.org/1999/xlink" width="832" height="284.958" viewBox="0 0 832 284.958">
  <defs>
    <filter id="Mask" x="22.5" y="14.5" width="787" height="239.959" filterUnits="userSpaceOnUse">
      <feOffset dy="2" input="SourceAlpha"/>
      <feGaussianBlur stdDeviation="2" result="blur"/>
      <feFlood flood-opacity="0.251"/>
      <feComposite operator="in" in2="blur"/>
      <feComposite in="SourceGraphic"/>
    </filter>
    <filter id="Mask-2" x="0" y="0" width="832" height="284.958" filterUnits="userSpaceOnUse">
      <feOffset dy="10" input="SourceAlpha"/>
      <feGaussianBlur stdDeviation="9.5" result="blur-2"/>
      <feFlood flood-opacity="0.251"/>
      <feComposite operator="in" in2="blur-2"/>
      <feComposite in="SourceGraphic"/>
    </filter>
    <clipPath id="clip-path">
      <g transform="matrix(1, 0, 0, 1, 0, 0)" filter="url(#Mask)">
        <rect id="Mask-3" data-name="Mask" width="775" height="227.959" rx="3" fill="#fff"/>
      </g>
    </clipPath>
    <clipPath id="clip-path-2">
      <path id="Clip_6" data-name="Clip 6" d="M68.955,0H-356.68V310.669H68.955Z" transform="translate(356.68)" fill="none"/>
    </clipPath>
  </defs>
  <g id="Grupo_7564" data-name="Grupo 7564" transform="translate(-307.5 -834.5)">
    <g transform="matrix(1, 0, 0, 1, 307.5, 834.5)" filter="url(#Mask-2)">
      <path id="Mask-4" data-name="Mask" d="M3.027,0H771.973A3.294,3.294,0,0,1,775,3.507V224.451a3.294,3.294,0,0,1-3.027,3.507H3.027A3.294,3.294,0,0,1,0,224.451V3.507A3.294,3.294,0,0,1,3.027,0Z" transform="translate(28.5 18.5)" fill="#fff"/>
    </g>
    <g id="Group_77" data-name="Group 77" transform="translate(336 853)" clip-path="url(#clip-path)">
      <g id="Group_35" data-name="Group 35" transform="translate(-0.001 -30.567)">
        <g id="Group_28" data-name="Group 28" transform="translate(0.002 -4.226)">
          <g id="Group_8" data-name="Group 8">
            <path id="Fill_1" data-name="Fill 1" d="M28.659,0h-357.19c-1.8,0-3.255,1.98-3.255,4.422V306.247c0,2.442,1.457,4.422,3.255,4.422H58.03q6.98-44.65-48.154-85.454c-55.132-40.8-127.166-44.307-112.742-131.488Q-88.442,6.546,28.659,0" transform="translate(446.555 0)" fill="#f7fdfd"/>
            <path id="Fill_3" data-name="Fill 3" d="M42.838,0H-279.207c-1.868,0-3.382,1.98-3.382,4.422l-49.888,301.825c0,2.442,1.514,4.422,3.382,4.422H73.42q7.266-44.65-50.139-85.454c-57.407-40.8-132.414-44.307-117.394-131.488Q-79.094,6.546,42.838,0" transform="translate(395.933 0)" fill="#e5f7f9"/>
            <g id="Group_7" data-name="Group 7">
              <path id="Clip_6-2" data-name="Clip 6" d="M68.955,0H-356.68V310.669H68.955Z" transform="translate(356.68)" fill="none"/>
              <g id="Group_7-2" data-name="Group 7" clip-path="url(#clip-path-2)">
                <path id="Fill_5" data-name="Fill 5" d="M-18.892,1.106C-97.027.736-175.162.014-253.3,0c-23.747,0-42.763,3.2-74.223,38.129-30.656,34.034-29.148,70.56-29.148,100.442V306.247c0,2.442,1.477,4.422,3.3,4.422H68.368q6.019-44.491-49.64-85.151c-55.659-40.659-83.952-82.009-83.952-140.482q0-58.474,46.331-83.931" transform="translate(356.68 0)" fill="#f0fbfc"/>
              </g>
            </g>
          </g>
          <path id="Fill_1-2" data-name="Fill 1" d="M-.791,4.628l4.865.745L.559,8.983l.829,5.085-4.354-2.4-4.344,2.4.829-5.085L-10,5.374l4.865-.745L-2.966,0Z" transform="translate(149.957 71.485)" fill="#fff"/>
          <path id="Fill_1_Copy" data-name="Fill 1 Copy" d="M-.475,2.777l2.919.447L.335,5.39l.5,3.051L-1.779,7-4.386,8.441l.5-3.051L-6,3.224l2.919-.447L-1.779,0Z" transform="translate(100.152 146.728)" fill="#fff"/>
        </g>
      </g>
    </g>
  </g>
</svg>
