<svg xmlns="http://www.w3.org/2000/svg" width="70.001" height="44.819" viewBox="0 0 70.001 44.819">
  <g id="Grupo_18933" data-name="Grupo 18933" transform="translate(21089.701 17619.283)">
    <g id="Grupo_7582" data-name="Grupo 7582" transform="translate(-21089.701 -17619.283)">
      <path id="Trazado_2464" data-name="Trazado 2464" d="M1379.96,869.813c.873-.047,1.932,2.7,2.686,6.523h-4.56a13.933,13.933,0,0,1,.457-3.47C1378.878,871.59,1379.333,869.847,1379.96,869.813Z" transform="translate(-1312.645 -869.81)" fill="#d1aa02"/>
      <path id="Trazado_2466" data-name="Trazado 2466" d="M762.963,869.813c-.873-.047-1.932,2.685-2.686,6.487h4.559a13.789,13.789,0,0,0-.457-3.451C764.045,871.581,763.591,869.847,762.963,869.813Z" transform="translate(-760.277 -869.81)" fill="#d1aa02"/>
      <path id="Trazado_2465" data-name="Trazado 2465" d="M847.771,869.792q-.1,0-.2,0t-.2,0H783.6c-.063,0-.129,0-.2,0s-.139,0-.2,0c.275.539.466.994.587,1.3a14.229,14.229,0,0,1,1.063,5q0,.58,0,1.16h0V903.3l30.636,11.311S846.121,903.3,846.121,903.3V877.247h0q0-.58,0-1.16a14.221,14.221,0,0,1,1.063-5C847.305,870.785,847.5,870.331,847.771,869.792Z" transform="translate(-780.484 -869.787)" fill="#ffd000"/>
    </g>
    <g id="Grupo_7583" data-name="Grupo 7583" transform="translate(-21066.32 -17607.594)">
      <circle id="Elipse_214" data-name="Elipse 214" cx="9.741" cy="9.741" r="9.741" transform="translate(0.972 1.795)" fill="#fff"/>
      <path id="Fill_5" data-name="Fill 5" d="M11.24,22.479a10.959,10.959,0,0,1-7.246-2.6,9.468,9.468,0,0,1-2.044-2.322A11.3,11.3,0,0,1,0,11.24,11.219,11.219,0,0,1,11.24,0a11.068,11.068,0,0,1,4.381.9,11.2,11.2,0,0,1,3.586,2.448,10.939,10.939,0,0,1,3.179,7.894,11.585,11.585,0,0,1-.279,2.508,8.933,8.933,0,0,1-1.115,2.972,10.947,10.947,0,0,1-4.005,4.168A11.171,11.171,0,0,1,11.24,22.479Zm-.046-7.661a.265.265,0,0,1,.156.05l4.328,3.145a.264.264,0,0,0,.155.052.271.271,0,0,0,.218-.113.258.258,0,0,0,.036-.237l-1.651-5.087a.262.262,0,0,1,.1-.3l4.327-3.144a.266.266,0,0,0-.157-.481H13.353a.264.264,0,0,1-.253-.184L11.446,3.434a.266.266,0,0,0-.505,0L9.288,8.522a.264.264,0,0,1-.253.184H3.686a.266.266,0,0,0-.156.481l4.327,3.144a.267.267,0,0,1,.1.3L6.3,17.715a.258.258,0,0,0,.036.237.272.272,0,0,0,.219.113.263.263,0,0,0,.155-.052l4.328-3.145A.268.268,0,0,1,11.194,14.818Z" transform="translate(0 0)" fill="#1a1446"/>
    </g>
  </g>
</svg>
