<svg id="icon_done" xmlns="http://www.w3.org/2000/svg" width="16.565" height="15.823" viewBox="0 0 16.565 15.823">
  <path id="Trazado_56" data-name="Trazado 56" d="M489.94,306.438a7.911,7.911,0,1,1,4.528-14.4l.427.3-.6.854-.426-.3a6.871,6.871,0,1,0,2.939,5.635,6.93,6.93,0,0,0-.16-1.483l-.112-.508,1.017-.223.112.508a8,8,0,0,1,.185,1.706,7.92,7.92,0,0,1-7.911,7.911" transform="translate(-482.029 -290.615)" fill="#06748c"/>
  <path id="Trazado_57" data-name="Trazado 57" d="M492.949,302.522a.518.518,0,0,1-.366-.151l-3.6-3.564.732-.74,3.2,3.166,7.815-9.35.8.667-8.177,9.785a.523.523,0,0,1-.375.186h-.024" transform="translate(-484.961 -291.15)" fill="#06748c"/>
</svg>
