<svg id="Layer_2" xmlns="http://www.w3.org/2000/svg" width="180" height="180" viewBox="0 0 180 180">
  <g id="Outline_x2F_80_x25__teal_circle_1_">
    <g id="Driver_x5F_shortage_1_">
      <path id="Trazado_5517" data-name="Trazado 5517" d="M90,0a90,90,0,1,0,90,90A90.078,90.078,0,0,0,90,0Z" fill="#ffdb00"/>
      <g id="Grupo_7555" data-name="Grupo 7555" transform="translate(39.481 43.548)">
        <g id="Grupo_7553" data-name="Grupo 7553" transform="translate(11.326 43.548)">
          <path id="Trazado_5518" data-name="Trazado 5518" d="M69.548,81.175c0-5.952-5.08-12.92-11.758-13.5-4.5-.291-9.146-.291-13.645-.145H35l.581,3.338c2.758,16.548,18.435,29.323,30.919,30.338l3.048.29V81.175Zm-18.58-8.128c2.468,0,4.5.144,6.532.289,3.048.29,6.387,4.209,6.387,7.839v13.79C53.581,92.352,44.872,82.191,41.968,73.047H44.29C46.613,73.19,48.791,73.047,50.968,73.047Z" transform="translate(-35 -56.643)" fill="#1a1444"/>
          <path id="Trazado_5519" data-name="Trazado 5519" d="M95.831,67.511H90.314c-4.209,0-8.709-.145-13.064.144-5.661.292-11.9,6.387-12.193,11.9-.29,4.5-.146,9-.146,13.355v9l3.194-.435h0C84.653,99.011,97.427,83.188,98.59,70.7l.289-3.049H95.831Zm-3.339,5.661C90.314,81.736,81.75,91.753,70.573,94.946V92.769c0-4.5-.146-8.709.145-12.92h0c.144-2.612,4.063-6.531,6.823-6.531,2.177-.146,4.5-.146,7.4-.146h7.548Z" transform="translate(-21.508 -56.625)" fill="#1a1444"/>
          <circle id="Elipse_2" data-name="Elipse 2" cx="6.387" cy="6.387" r="6.387" transform="translate(32.516)" fill="#1a1444"/>
        </g>
        <g id="Grupo_7554" data-name="Grupo 7554">
          <path id="Trazado_5520" data-name="Trazado 5520" d="M121.556,56.42a20.07,20.07,0,0,1-4.065,4.5,41.349,41.349,0,0,1,4.21,19.016A42.878,42.878,0,0,1,108.927,111,44.347,44.347,0,0,1,33.153,79.79C33.3,55.838,52.894,35.952,76.846,35.661h.581c1.6,0,3.048.145,4.645.29a23.942,23.942,0,0,1,2.9-5.371A54.735,54.735,0,0,0,76.556,30,50.455,50.455,0,0,0,27.2,79.79a49.279,49.279,0,0,0,14.516,35.274,49.6,49.6,0,0,0,70.984,0A48.718,48.718,0,0,0,127.072,80.08,44.206,44.206,0,0,0,121.556,56.42Z" transform="translate(-27.198 -30)" fill="#1a1444"/>
          <path id="Trazado_5521" data-name="Trazado 5521" d="M35.235,70.653,34.8,73.847h5.517c9-.436,16.983-3.484,23.661-6.532,6.532-3.048,12.919-3.048,19.887-.145A102.461,102.461,0,0,0,97.219,72.1a59.139,59.139,0,0,0,8.565,1.6,31.455,31.455,0,0,1,3.628.58l3.775.581-.581-3.774h0a38.528,38.528,0,0,0-3.049-10.6,23.62,23.62,0,0,1-5.371,1.887,29.4,29.4,0,0,1,2.032,5.661l-1.887-.29a51.294,51.294,0,0,1-5.807-1.162A118.8,118.8,0,0,1,85.9,61.944a29.515,29.515,0,0,0-24.532.291c-5.807,2.613-12.63,5.371-20.033,5.951,3.63-14.952,18-25.693,33.823-25.113.726,0,1.307.145,2.032.145a15.719,15.719,0,0,1-.146-2.613,21.8,21.8,0,0,1,.29-3.048c-.58,0-1.306-.145-1.887-.145C55.558,36.541,37.848,51.2,35.235,70.653Z" transform="translate(-23.765 -26.67)" fill="#1a1444"/>
        </g>
      </g>
    </g>
  </g>
  <path id="Trazado_5522" data-name="Trazado 5522" d="M84.683,27.7a16.984,16.984,0,1,0,16.984,16.984A17.005,17.005,0,0,0,84.683,27.7Zm.29,30.048ZM91.8,54.41l-7.114-5.08-7.112,5.08,2.758-8.274-7.113-5.081h8.709l2.758-8.274,2.758,8.274h8.711l-7.114,5.081Z" transform="translate(30.574 12.51)" fill="#1a1444"/>
</svg>
