<?xml version="1.0" encoding="UTF-8"?>
<svg width="79px" height="79px" viewBox="0 0 79 79" version="1.1" xmlns="http://www.w3.org/2000/svg" xmlns:xlink="http://www.w3.org/1999/xlink">
    <!-- Generator: sketchtool 59.1 (101010) - https://sketch.com -->
    <title>D4F83FB0-DCE7-4F59-97E8-2D782BE3DFDD</title>
    <desc>Created with sketchtool.</desc>
    <defs>
        <circle id="path-1" cx="39.5" cy="39.5" r="39.5"></circle>
    </defs>
    <g id="Page-1" stroke="none" stroke-width="1" fill="none" fill-rule="evenodd">
        <g id="Desktop" transform="translate(-11.000000, -11.000000)">
            <g id="Path-+-white-Mask" transform="translate(11.000000, 11.000000)">
                <mask id="mask-2" fill="white">
                    <use xlink:href="#path-1"></use>
                </mask>
                <use id="Mask" fill="#FFD000" xlink:href="#path-1"></use>
                <path d="M60.4444306,75.4788315 C60.0958472,75.7233967 56.2947613,63.7647826 55.9500946,64.0230435 C53.9682613,58.9184783 52.4055113,54.7608696 52.1137196,53.5047826 C53.2162613,52.505 55.529053,48.8717391 56.093053,46.4123913 C56.880303,42.9865217 56.6413863,41.3567391 55.8090946,38.7565217 C55.2137613,36.8586957 54.0093863,35.0802174 54.089678,33.8808696 C54.154303,32.9769565 54.6262613,32.3391304 55.0277196,31.9302174 C54.8103446,30.676087 53.9937196,30.1145652 53.0165113,29.9932609 C52.1137196,29.873913 51.4126363,30.1341304 50.617553,30.1713043 C50.411928,29.8073913 50.0104696,29.873913 50.312053,28.568913 C50.7722613,26.5967391 54.5557613,25.6673913 57.6460113,24.4719565 C61.5646363,22.9556522 63.754053,20.1363043 63.8911363,15.6069565 C63.983178,12.3180435 62.1482196,9.87826087 59.8491363,8.7826087 C59.3869696,10.1071739 57.4775946,11.8973913 56.151803,12.6213043 C54.841678,13.351087 53.026303,13.6152174 51.716178,13.3197826 C52.004053,10.8995652 50.8799696,8.82956522 49.113553,8 C48.549553,9.02717391 46.4208446,10.4554348 43.220928,10.3536957 C40.0210113,10.2578261 39.8153863,9.50456522 35.319053,9.51630435 C28.921178,9.52804348 23.621928,13.3745652 22.9717613,19.0426087 C22.5448446,22.7208696 23.968553,25.8023913 25.0338863,27.4086957 C24.2348863,28.0034783 22.3666363,29.8073913 22.029803,30.3356522 C21.571553,29.8073913 20.3005946,29.0834783 18.769178,30.0813043 C19.1001363,30.8834783 19.162803,31.8617391 18.9062613,32.795 C18.639928,33.7282609 16.3036363,38.2536957 16.0392613,41.9143478 C15.584928,48.1028261 19.162803,52.2976087 22.1629696,53.4969565 C21.5049696,54.4947826 21.3698446,55.5591304 21.8339696,56.4258696 C22.141428,57.0030435 22.764178,57.5665217 24.0351363,57.5665217 C23.304678,58.3608696 23.0246363,59.5680435 23.498553,60.7556522 C24.0351363,62.086087 25.5645946,64.0191304 26.8962613,64.0191304 C26.829678,65.1480435 27.3682196,67.8069565 27.6306363,68.8732609 C27.1684696,69.7458696 26.6965113,70.3973913 26.765053,71.9958696 C26.829678,73.6530435 27.9008863,74.9991304 29.226678,75.2593478 C29.561553,76.0693478 29.814178,76.943913 30.2802613,77.476087 C30.7463446,78.0180435 31.1556363,78.6636957 32.1622196,79.3230435 C33.162928,79.9882609 34.2948446,80.5282609 35.630428,80.5282609 C36.9620946,80.5282609 38.1351363,80.588913 38.732428,80.3932609 C38.7657196,80.7728261 62.5398472,74.0114402 60.4444306,75.4788315 Z" id="Path" fill="#1A1446" fill-rule="nonzero" mask="url(#mask-2)"></path>
                <path d="M74.705053,112.79913 L79.6380946,122.073043 C77.0002196,121.570217 73.5085113,122.020217 71.1839696,123.804565 C66.803178,127.163913 65.3324696,131.687391 64.6039696,138.296522 C63.9087613,144.696304 62.3518863,150.241087 60.0077613,154.19913 C58.501803,156.760217 54.2678863,161.927391 52.7932613,163.88 C54.3932196,160.686957 55.6308863,152.978261 55.529053,146.989348 C55.4605113,143.099783 54.2757196,134.508696 55.3077613,128.817174 C56.4240113,122.712826 58.1571363,119.285 62.2461363,115.512826 C64.3337196,113.595435 68.606803,111.147826 74.705053,112.79913 Z M79.7183863,125.148696 L85.2937613,136.506304 C85.7931363,137.701739 87.4342196,138.122391 88.5328446,138.057826 C83.300178,139.75413 70.1186363,146.016957 65.087678,150.900435 C66.2881363,148.204348 67.8626363,140.511304 68.3052196,137.942391 C68.8731363,134.637826 69.4038446,129.826739 73.336178,126.575 C75.2710113,124.984348 78.4513446,124.771087 79.7183863,125.148696 Z M90.9925113,81.434003 C96.1997196,81.4106522 102.53297,84.635 106.847178,87.9180435 C112.385345,92.1030435 115.628345,95.9730435 115.875095,97.2663043 C115.980845,97.816087 116.17472,98.5986957 115.980845,99.0623913 C115.377678,98.2563043 111.079136,94.1691304 111.079136,94.1691304 L111.079136,94.1691304 L108.382511,97.5832609 L113.478095,102.057826 C112.281553,102.760217 111.071303,103.302174 109.081636,103.051739 C106.714011,102.760217 101.48722,99.4595652 101.391261,96.871087 C99.2527613,95.9632609 94.392178,94.5036957 90.3952196,94.5721739 C87.788678,94.6093478 84.8942613,95.2628261 83.9973446,95.566087 C83.094553,95.8713043 82.4326363,95.3058696 81.737428,95.0065217 L81.737428,95.0065217 L81.4182196,95.206087 L83.3980946,98.2563043 C83.9973446,98.5615217 85.1175113,97.865 86.6939696,97.5832609 C89.392553,97.1 93.0546363,97.4971739 95.790428,99.0623913 C97.6919696,100.158043 102.985345,104.556304 104.082011,105.65587 C105.178678,106.745652 106.88047,107.054783 107.681428,106.348478 C108.476511,105.65587 109.61822,105.671522 109.516386,106.563696 C109.420428,107.461739 108.97197,108.453696 109.884553,108.843043 C110.716845,109.214783 111.18097,108.453696 111.776303,108.048696 C112.385345,107.643696 112.97872,107.549783 113.677845,107.948913 C113.176511,108.950652 111.876178,110.537391 110.78147,111.443261 C109.678928,112.343261 107.986928,113.139565 106.88047,112.734565 L106.88047,112.734565 L106.183303,114.438696 L111.18097,125.921522 C112.491095,128.558913 112.667345,129.26913 113.732678,131.033913 C103.948845,132.642174 94.9307196,135.843043 91.9090113,137.087391 L91.9090113,137.087391 L89.9115113,130.235652 L94.486178,123.833913 C94.486178,123.833913 89.7293863,125.54 88.2723863,125.66913 C87.976678,125.696522 85.673678,126.140652 85.1840946,123.900435 C85.1840946,123.900435 84.8002613,122.401739 84.8002613,121.795217 C84.8002613,121.223913 85.2937613,120.525435 85.7931363,120.62913 C86.6978863,120.805217 87.195303,120.433478 87.195303,120.433478 L87.195303,120.433478 L88.1548863,119.15 C87.353928,119.050217 86.431553,118.807609 86.032053,118.807609 C85.638428,118.807609 84.909928,119.169565 84.2186363,119.367174 C83.8191363,119.069783 83.1983446,118.535652 83.3980946,117.83913 L83.3980946,117.83913 L88.687553,117.83913 L88.7893863,117.228696 C88.7893863,117.228696 86.0633863,116.011739 85.003928,115.958913 C83.9503446,115.921739 83.5018863,116.532174 83.5018863,116.532174 L83.5018863,116.532174 L83.5018863,115.532391 L86.4981363,113.012391 L83.3980946,111.744565 L81.6982613,112.04587 L82.8027613,105.057174 L82.2152613,103.838261 L79.1915946,105.65587 L79.0975946,101.69 C79.1915946,100.954348 80.597678,99.5613043 81.737428,98.9058696 L81.737428,98.9058696 L81.537678,96.5013043 C80.3313446,97.235 79.0016363,97.6654348 78.200678,98.7669565 C77.4819696,99.7569565 76.6046363,101.257609 76.6986363,102.556739 C75.803678,101.69 75.6137196,100.273478 75.803678,99.2952174 C76.068053,97.9276087 76.6046363,96.9630435 77.9970113,95.7676087 C77.595553,94.6367391 77.501553,92.5804348 77.8990946,90.6728261 C78.5629696,87.5247826 82.195678,81.4830435 90.9925113,81.434003 Z M116.971761,110.537391 L117.292928,117.35587 C117.292928,117.35587 121.752053,125.790435 123.700595,130.151522 C121.871511,130.112391 120.140345,130.151522 118.538428,130.151522 C117.65522,128.558913 116.922803,127.316522 115.99847,124.843478 C115.99847,124.843478 113.043345,119.394565 112.477386,118.336087 C111.97997,117.395 111.658803,116.048913 112.557678,114.648043 C113.454595,113.258913 115.677303,111.321957 116.971761,110.537391 L116.971761,110.537391 Z M35.6284696,46.6413043 C36.4920946,47.243913 39.0222613,47.9776087 41.2195113,47.9776087 C41.687553,47.9776087 42.6608446,49.0223913 43.220928,49.2473913 C43.861303,49.49 44.9285946,50.0828261 45.4318863,50.3078261 C45.882303,50.5034783 46.1662613,51.5658696 46.2955113,51.9669565 C46.428678,52.3719565 62.473303,93.9676087 62.7396363,94.4371739 C63.0118446,94.8969565 63.9440113,101.893478 64.0047196,102.419783 C64.0732613,102.95587 66.474178,108.541739 66.938303,109.077826 C64.805678,109.017174 61.3139696,110.232174 58.4528446,113.039783 C55.6485113,115.767174 53.1751363,121.771739 52.6111363,124.534348 C52.4113863,123.074783 44.5525946,99.0956522 44.2177196,98.4969565 C43.878928,97.9002174 42.345553,65.5471739 42.286803,64.4123913 L44.019928,63.1563043 L44.019928,62.8236957 C42.750928,62.7552174 41.288053,62.2895652 40.8219696,61.55 L40.3558863,51.6382609 C38.6227613,51.5013043 36.8367613,50.9534783 36.1670113,50.2941304 C35.3405946,49.4606522 34.696303,48.4354348 35.6284696,46.6413043 Z M98.287303,103.81087 C95.8883446,101.926739 92.5082613,100.101304 89.4610946,100.754783 C87.3911363,101.198913 85.2017196,102.458913 85.2017196,102.458913 L85.2017196,102.458913 L85.2017196,104.255 C86.190678,104.556304 87.2932196,105.65587 87.994303,106.551957 L87.994303,106.551957 L89.5727196,106.152826 L88.8970946,105.057174 C88.8970946,105.057174 89.8723446,104.603261 91.090428,104.556304 C92.459303,104.487826 93.7263446,104.75587 94.392178,105.34087 L94.392178,105.34087 L97.8329696,104.532826 Z M67.1165113,93.7034783 L73.8570946,96.9532609 C73.2519696,97.8806522 73.0385113,98.446087 72.836803,99.5730435 C72.637053,100.709783 72.7878446,101.337826 72.9210113,102.267174 L67.543428,98.5615217 C67.608053,97.3034783 67.2751363,95.2393478 67.1928863,94.1691304 C67.179178,94.0595652 67.1419696,93.856087 67.1165113,93.7034783 Z M137.902428,83.285 L120.445845,99.7608696 C120.347928,98.0626087 118.373928,93.4647826 117.17347,92.465 L137.902428,83.285 Z M100.282845,87.0767391 L98.393053,91.9680435 C99.6816363,92.375 103.982136,94.4645652 106.183303,95.885 L106.183303,95.885 L108.680178,92.375 C107.777386,91.4671739 101.888678,87.8808696 100.282845,87.0767391 L100.282845,87.0767391 Z M82.601053,87.4817391 C81.5004696,88.5754348 79.0975946,91.5571739 79.9945113,94.5721739 C81.003053,93.5978261 83.0044696,92.0717391 84.2910946,91.3732609 L84.2910946,91.3732609 Z M90.690928,84.6780435 C88.5974696,84.6780435 86.296428,85.2806522 85.097928,86.1747826 L85.097928,86.1747826 L86.6939696,90.7765217 C88.8970946,90.2736957 94.1885113,90.0702174 95.790428,91.1815217 L95.790428,91.1815217 L96.6873446,85.981087 C95.085428,85.1828261 92.7922196,84.6780435 90.690928,84.6780435 Z M123.252136,65.3417391 L112.659511,87.9023913 C111.658803,87.0923913 107.477761,83.5882609 105.501803,82.88 L105.501803,82.88 L123.252136,65.3417391 Z M92.4906363,50.7793478 L97.541178,79.3778261 C95.949053,78.5756522 90.9709696,78.1178261 88.769803,78.515 L88.769803,78.515 L92.4906363,50.7793478 Z M35.5403446,57.23 C36.6252613,57.9636957 38.2291363,59.6013043 39.090803,60.8241304 C39.889803,61.9569565 40.3578446,63.2169565 40.424428,64.6158696 C40.4851363,66.0147826 40.5027613,67.6797826 40.218803,69.4093478 C40.7632196,69.8769565 41.2900113,70.2721739 41.3507196,71.0078261 C41.4192613,71.7454348 41.1490113,72.0095652 40.8865946,72.6004348 C40.0817196,72.1445652 37.892303,71.0743478 36.153303,71.138913 C34.3594696,71.2073913 32.845678,71.5752174 31.4258863,72.4752174 C30.8266363,72.0702174 30.6464696,71.2680435 31.0263863,70.3445652 C31.4102196,69.4093478 31.958553,69.2684783 31.958553,69.2684783 L31.4572196,60.5580435 C31.4572196,60.5580435 33.9110113,58.8030435 34.567053,58.6171739 C35.2328863,58.4078261 35.5403446,57.8893478 35.5403446,57.23 Z M32.9592613,48.2456522 C33.1492196,49.1593478 33.162928,49.9028261 33.092428,50.2354348 C33.0258446,50.57 32.892678,50.9730435 32.4951363,51.1726087 C32.0917196,51.3663043 30.7502613,52.058913 30.7502613,52.058913 C31.611928,51.9904348 33.3587613,52.0315217 33.961928,52.1 C34.5533446,52.1665217 34.8275113,52.2976087 34.8275113,52.9041304 C34.8275113,53.495 34.6630113,54.0995652 34.3359696,54.5573913 C33.9952196,55.0328261 33.0082196,54.9506522 32.4794696,55.0132609 C32.7477613,55.6119565 32.8260946,55.8936957 32.8260946,56.4963043 C32.8260946,57.095 32.6243863,57.3630435 32.0917196,57.635 C31.5570946,57.8893478 30.8971363,58.2219565 30.2352196,58.6934783 C29.7593446,59.0221739 28.8115113,60.473913 28.615678,61.3406522 C27.7677196,60.8241304 26.8962613,58.9478261 26.6867196,58.1378261 C27.428928,56.8934783 28.968178,55.696087 29.696678,55.5591304 C28.8232613,55.4945652 27.428928,55.5591304 26.2323863,55.7626087 C25.830928,54.9584783 25.6977613,53.5615217 25.901428,52.6517391 L25.901428,52.6517391 L27.2272196,52.7104348 L26.494803,50.8986957 C27.428928,50.1023913 30.9617613,48.3063043 32.9592613,48.2456522 Z M35.800803,41.0808696 C38.9928863,41.0808696 41.0745946,41.93 42.257428,42.8867391 C43.685053,44.0430435 43.9239696,45.3930435 43.7927613,46.9269565 C42.727428,45.9252174 40.5850113,44.0430435 36.053428,44.0313043 C32.3149696,44.0176087 29.4303446,45.5163043 29.032803,46.7782609 C28.7645113,45.0408696 28.968178,43.8767391 30.1882196,42.8417391 C31.523803,41.7069565 33.6642613,41.0808696 35.800803,41.0808696 Z M36.029928,28.6726087 C37.4908446,28.6726087 38.691303,30.5958696 40.083678,30.7973913 C41.4897613,31.0028261 43.685053,29.33 45.083303,29.8758696 C46.4854696,30.4002174 45.747178,32.5367391 46.816428,33.3936957 C47.815178,34.1880435 50.1455946,33.2606522 50.8133863,33.1334783 C50.6155946,34.0569565 50.3492613,34.7280435 50.411928,35.7278261 C50.4843863,36.7217391 52.086303,39.7230435 52.1411363,40.7795652 C52.2116363,42.1197826 52.2821363,43.2506522 51.7494696,44.4421739 C51.6084696,40.4528261 46.857553,35.5947826 36.329553,35.3932609 C27.1390946,35.221087 20.831303,38.918913 21.0995946,44.5752174 C20.6942196,43.4463043 20.1870113,42.7380435 20.3005946,41.2002174 C20.437678,39.458913 21.5813446,37.9915217 22.1100946,36.5926087 C22.529178,35.4852174 22.2961363,33.5952174 21.8339696,33.1334783 C22.4312613,33.0004348 23.651303,33.7380435 24.497303,33.5306522 C25.5626363,33.2606522 25.8818446,32.9026087 26.283303,32.0436957 C26.688678,31.1730435 27.2272196,30.4647826 28.1358863,30.4002174 C28.9583863,30.3415217 30.636678,31.1828261 32.0251363,30.8678261 C33.8228863,30.4647826 34.5533446,28.6726087 36.029928,28.6726087 Z M47.8347613,13.223913 C48.3067196,14.2902174 48.1187196,15.3897826 47.5488446,16.3680435 C48.6807613,16.9667391 51.8826363,17.5536957 53.214303,17.4852174 C55.8776363,17.356087 58.6095113,15.9023913 59.5965113,14.5152174 C60.0077613,15.9669565 59.7159696,18.121087 58.4156363,19.2852174 C55.8071363,21.6134783 49.6795113,22.8773913 47.885678,24.2136957 C46.3973446,25.3113043 45.8196363,25.9413043 45.418178,26.8726087 C44.818928,26.2758696 44.478178,25.7867391 43.4990113,25.8904348 C42.345553,26.0117391 41.7560946,27.1445652 40.6222196,27.0682609 C39.1515113,26.9821739 38.021553,24.5423913 36.294303,24.473913 C33.627053,24.3741304 32.5617196,26.54 31.4278446,26.6084783 C30.6327613,26.6554348 29.5517613,25.4815217 29.0954696,24.8828261 C28.2945113,23.8145652 27.8323446,22.0145652 27.9380946,20.2830435 C28.098678,17.4852174 30.3507613,14.0378261 35.2093863,13.7756522 C37.4301363,13.6563043 40.2932196,14.2471739 41.7560946,14.2471739 C43.220928,14.2471739 46.9672196,13.8852174 47.8347613,13.223913 Z" id="white" fill="#FFFFFE" fill-rule="nonzero" mask="url(#mask-2)"></path>
            </g>
        </g>
    </g>
</svg>