<svg id="Logo_Principal" data-name="Logo/Principal" xmlns="http://www.w3.org/2000/svg" width="103.494" height="52.474" viewBox="0 0 103.494 52.474">
  <path id="Fill_1" data-name="Fill 1" d="M4.138.719c-.063-.258.768-.408.767-.449,0-.24.036-.226-.153-.257L.207.01C.082.01.2.656.3.661.732.68,1.207.634,1.39.977L3.269,4.5c.858,1.609,1.645,3.229,1.56,3.635-.12.584-1.172,3.218-2.613,3.564-.566.137-1.8-.334-1.722-.09A4.657,4.657,0,0,1,0,13.941a3.289,3.289,0,0,0,2.544-.378,3.8,3.8,0,0,0,1.242-1.687l4.476-9.7A4.019,4.019,0,0,1,8.979.9a2.672,2.672,0,0,1,1-.527l.1-.374L6.7.006c-.162.019-.032.39,0,.381A1.324,1.324,0,0,1,7.348.52c.5.523.514.612.227,1.539L6.151,5.253A36.739,36.739,0,0,1,4.138.719" transform="translate(88.137 19.433)" fill="#1e1045"/>
  <path id="Fill_3" data-name="Fill 3" d="M3.742,3.683l2.15,0c.125,0,.211,0,.258-.053a.842.842,0,0,0,.018-.481c-.019-.057-.06-.1-.1-.1l-.74,0H4.032c-.454,0-.3-.2-.3-.818L3.725.269c0-.323-.175-.366-.473-.07L.1,3.321c-.163.162-.121.358.044.359l1.18,0c.1,0,.1.213.1.341V8.8c0,2.686,3.569,3.071,4.936,1.35.186-.236.5-.831.073-.539-1.5,1.016-2.684.5-2.685-1.3Z" transform="translate(82.358 16.379)" fill="#1e1045"/>
  <path id="Fill_5" data-name="Fill 5" d="M.015.767C.028,1.086,1.478.36,1.478,2.542V6.536C1.478,7.937.094,7.685.1,7.9c.005.121-.013.328.062.328l4.947,0c.037,0,.084-.4,0-.4C3.869,7.714,3.891,7.038,3.891,6.25V3.2c0-.2.332-.646,1.041-.868,1.835-.576,1.924.681,2.3.67.3-.009.529-1.637.506-1.867A1.362,1.362,0,0,0,5.68.173a5.288,5.288,0,0,0-1.824,2.3C3.843,2.5,3.962.039,3.912.042L0,.262Z" transform="translate(74.237 19.031)" fill="#1e1045"/>
  <path id="Fill_7" data-name="Fill 7" d="M4.3,8.6h0a4.833,4.833,0,0,1-1.63-.286,4.015,4.015,0,0,1-1.36-.8A3.663,3.663,0,0,1,.4,6.251,4.749,4.749,0,0,1,0,4.48,4.36,4.36,0,0,1,2.643.364,4.46,4.46,0,0,1,4.4,0,4.071,4.071,0,0,1,8.417,3.283c0,.022.006.045.01.069.013.08.027.163-.017.214a.193.193,0,0,1-.154.05H2.474a4.975,4.975,0,0,0,.271,1.835A2.844,2.844,0,0,0,5.272,7.519,4.515,4.515,0,0,0,8.361,5.793a.088.088,0,0,1,.06-.033.039.039,0,0,1,.035.02c.028.045.007.147-.056.274A4.564,4.564,0,0,1,4.3,8.6ZM4.285.659c-.03,0-.061,0-.091,0C2.7.8,2.454,2.817,2.468,3.117c0,.013,0,.02,0,.02l3.363-.012c.132,0,.205-.114.2-.318C6.038,2.166,5.3.659,4.285.659Z" transform="translate(65.542 18.997)" fill="#1e1045"/>
  <path id="Fill_9" data-name="Fill 9" d="M4.622,13.492h0c-.3,0-.6-.012-.888-.035a.848.848,0,0,1-.151-.035,7.586,7.586,0,0,0-2.2-.223.149.149,0,0,1-.113-.042.341.341,0,0,1-.039-.246c0-.024,0-.046,0-.065L1.274,1.208c0-.12-.447-.3-.806-.443A1.437,1.437,0,0,1,.018.549L0,.239,3.572,0,3.516,5.849a.415.415,0,0,0,.059.282.1.1,0,0,0,.071.028,1.3,1.3,0,0,0,.5-.282c.148-.1.315-.223.51-.344A3.674,3.674,0,0,1,7.57,5.011,3.517,3.517,0,0,1,9.831,6.789a4.7,4.7,0,0,1,.355,3.694A3.987,3.987,0,0,1,7.8,13,9.282,9.282,0,0,1,4.622,13.492Zm.958-7.43a2.674,2.674,0,0,0-.291.016c-.365.04-1.6.535-1.679.963a2.282,2.282,0,0,0-.027.394v3.733c0,1.086.234,1.674,1.471,1.674h.031c1.887-.014,2.868-1.866,2.861-3.688C7.94,7.615,7.206,6.062,5.58,6.062Z" transform="translate(54.202 14.157)" fill="#1e1045"/>
  <path id="Fill_11" data-name="Fill 11" d="M2.814,1.415A1.441,1.441,0,0,0,2.627.7,1.385,1.385,0,0,0,1.419,0,1.408,1.408,0,0,0,.182.715,1.4,1.4,0,0,0,0,1.389a1.3,1.3,0,0,0,.19.678,1.383,1.383,0,0,0,.5.5,1.462,1.462,0,0,0,.726.19,1.4,1.4,0,0,0,.734-.2,1.379,1.379,0,0,0,.483-.5,1.258,1.258,0,0,0,.178-.64" transform="translate(50.059 14.204)" fill="#1e1045"/>
  <path id="Fill_13" data-name="Fill 13" d="M1.473,6.09c-.009.284-.016,1.074-.3,1.279-.253.18-1.027.459-1.024.5.01.218.143.258.334.257L4.157,8.1a2.19,2.19,0,0,0,.683-.01c.208-.072.105-.367-.119-.366-1.047,0-.8-.983-.821-1.566C3.736,2.232,3.822.743,3.823.049A18.809,18.809,0,0,0,.068.315c-.12.018-.058.464.013.46a1.393,1.393,0,0,1,1.508,1.6Z" transform="translate(48.894 19.091)" fill="#1e1045"/>
  <path id="Fill_15" data-name="Fill 15" d="M1.692,10.032c0,.207,0,.394-.016.562C1.6,11.636.091,11.6.109,11.666l.115.389,8.554-.006c.477,0,.533.023.641-.081a.615.615,0,0,0,.128-.377c.038-.879.177-1.77.246-2.649.006-.072-.067-.085-.163-.087-.21,0-.3.328-.379.471a3.675,3.675,0,0,1-1.7,1.877,3.553,3.553,0,0,1-2.647.008,1.166,1.166,0,0,1-.49-.644A3.317,3.317,0,0,1,4.279,9.52V1.912a3.743,3.743,0,0,1,.036-.468,1.1,1.1,0,0,1,.124-.411A.817.817,0,0,1,4.778.718c.089-.045.9-.412,1.254-.594.147-.076.121-.134.048-.109L.356,0C.3,0,.092,0,.029.01S.015.232.072.252C.721.48,1.577.628,1.628,1.461c.008.164.013.35.014.553Z" transform="translate(38.958 15.148)" fill="#1e1045"/>
  <path id="Fill_17" data-name="Fill 17" d="M0,.726H47.606V0H0Z" transform="translate(39.088 31.116)" fill="#1e1045"/>
  <path id="Fill_19" data-name="Fill 19" d="M0,.726H9.908V0H0Z" transform="translate(93.586 31.116)" fill="#1e1045"/>
  <path id="Fill_20" data-name="Fill 20" d="M4.514,8.089A4.393,4.393,0,0,1,3.509,7.96a5.817,5.817,0,0,1-1.024-.348,4.827,4.827,0,0,1-.894-.527,3.923,3.923,0,0,1-.818-.83A4.261,4.261,0,0,1,.208,5.212,3.307,3.307,0,0,1,0,4.111,3.8,3.8,0,0,1,.2,2.872a3.689,3.689,0,0,1,.523-1,3.891,3.891,0,0,1,.739-.749A4.569,4.569,0,0,1,2.276.605,5.263,5.263,0,0,1,3.421.18,5.7,5.7,0,0,1,4.853,0,4.761,4.761,0,0,1,6.132.176,4.993,4.993,0,0,1,7.346.692a4.3,4.3,0,0,1,1.018.827,3.661,3.661,0,0,1,.962,2.5,3.6,3.6,0,0,1-.182,1.138,3.914,3.914,0,0,1-.467.942,4.283,4.283,0,0,1-.609.725,3.618,3.618,0,0,1-.626.475,4.491,4.491,0,0,1-.929.454,5.488,5.488,0,0,1-1,.256A6.067,6.067,0,0,1,4.514,8.089ZM4.783.627A2.274,2.274,0,0,0,2.7,2.305a6.883,6.883,0,0,0-.165,2.63C2.8,6.593,3.543,7.4,4.809,7.4a3.327,3.327,0,0,0,.368-.021,1.627,1.627,0,0,0,1.18-.83l.056-.079a5.36,5.36,0,0,0,.573-2.738A4.208,4.208,0,0,0,6.65,1.708,2.155,2.155,0,0,0,5.215.67,2.259,2.259,0,0,0,4.783.627Z" transform="translate(84.368 38.816)" fill="#1e1045"/>
  <path id="Fill_21" data-name="Fill 21" d="M4.942,13.671a8.946,8.946,0,0,1-2.265-.236C1.034,13-.017,12.133,0,11.23c.012-.805.529-1.393,1.537-1.748a4.858,4.858,0,0,1,.639-.171c.172-.037.285-.061.313-.1a.128.128,0,0,0,.025-.12c-.037-.093-.233-.137-.481-.194a3.321,3.321,0,0,1-.743-.235,1.273,1.273,0,0,1-.775-1.18A1.305,1.305,0,0,1,1.16,6.339a10.939,10.939,0,0,1,1.047-.413c.2-.07.356-.126.439-.167.06-.031.089-.066.086-.1,0-.054-.08-.112-.2-.156l-.105-.037A2.7,2.7,0,0,1,.957,4.53,2.493,2.493,0,0,1,.793,1.984,3.6,3.6,0,0,1,2.813.193,3.523,3.523,0,0,1,4.008,0h.018L9.216.018l.157.169L9.336,1.334H7.686a.116.116,0,0,0-.109.066c-.02.035-.036.078-.018.1a2.427,2.427,0,0,1,.849,2.327A3.41,3.41,0,0,1,5.814,5.81a5.421,5.421,0,0,1-1.3.127c-.342,0-.656-.018-.863-.031-.036,0-.073,0-.109,0A1.078,1.078,0,0,0,2.4,6.645c-.029.325.282.579.832.678.391.07.839.12,1.314.172,1.511.167,3.223.356,4.162,1.305a2.165,2.165,0,0,1,.231,2.976,4.568,4.568,0,0,1-2.16,1.579A6.242,6.242,0,0,1,4.942,13.671ZM4.469,9.348a3.869,3.869,0,0,0-2.594.67.451.451,0,0,0-.11.386c.264,1.365,1.93,1.717,3.16,1.863a5.1,5.1,0,0,0,.6.034c1.217,0,2.471-.362,2.514-1.055a1.232,1.232,0,0,0-.355-.951A4.817,4.817,0,0,0,4.469,9.348ZM4.5.625a1.837,1.837,0,0,0-1.232.489,2.686,2.686,0,0,0-.57,2.38A2.957,2.957,0,0,0,3.17,4.629a1.781,1.781,0,0,0,1.4.664,1.5,1.5,0,0,0,.847-.248,2.646,2.646,0,0,0,.593-3.477A1.73,1.73,0,0,0,4.5.625Z" transform="translate(55.98 38.803)" fill="#1e1045"/>
  <path id="Fill_22" data-name="Fill 22" d="M.232,3.731A4.107,4.107,0,0,0,2.408,6.864c.56.357,1.261.781,1.814,1.056,1.366.679,2.45,2.019.95,3.169a2.675,2.675,0,0,1-2.047.371A5.859,5.859,0,0,1,2.1,11.073C.64,10.527.7,8.7.535,8.51.454,8.421.064,8.46.011,8.46c-.035,0,.03,3.53,0,3.726-.009.08.315.052.4.03.283-.074.218-.646.336-.631,1.1.128,1.715.805,3.48.644a5.2,5.2,0,0,0,1.046-.209,3.744,3.744,0,0,0,1.718-1.133A3.608,3.608,0,0,0,7.173,7a3.6,3.6,0,0,0-.824-.877C5.206,5.134,2.636,4.468,2.025,3.267.609.473,5.893-.1,6.61,2.955c.007.03-.01.289.025.29a1.757,1.757,0,0,1,.389.014c.12.054.07-.283.07-.4L7.1.241c0-.355-.328-.257-.486-.093A1.09,1.09,0,0,1,6.09.438,1.635,1.635,0,0,1,5.213.363,4.342,4.342,0,0,0,2.027.5,3.021,3.021,0,0,0,.232,3.731" transform="translate(39.136 34.63)" fill="#1e1045"/>
  <path id="Fill_23" data-name="Fill 23" d="M4.1,8.2h0a4.607,4.607,0,0,1-1.555-.273,3.827,3.827,0,0,1-1.295-.761,3.458,3.458,0,0,1-.864-1.2A4.562,4.562,0,0,1,0,4.272,4.158,4.158,0,0,1,2.519.348,4.25,4.25,0,0,1,4.2,0,3.88,3.88,0,0,1,8.025,3.131c0,.02.006.04.01.062.013.078.027.158-.015.208a.183.183,0,0,1-.146.048H2.358A4.71,4.71,0,0,0,2.62,5.2,2.7,2.7,0,0,0,5.026,7.17,4.3,4.3,0,0,0,7.97,5.524a.087.087,0,0,1,.059-.032.038.038,0,0,1,.034.019c.026.043.006.14-.054.261A4.349,4.349,0,0,1,4.1,8.2ZM4.087.628c-.029,0-.058,0-.087,0C2.577.764,2.339,2.685,2.352,2.971c0,.013,0,.02,0,.02L5.564,2.98c.126,0,.2-.108.195-.3C5.757,2.065,5.049.628,4.087.628Z" transform="translate(47.407 38.738)" fill="#1e1045"/>
  <path id="Fill_24" data-name="Fill 24" d="M10.181,7.766a26.173,26.173,0,0,1-3.414.154V6.437a1.521,1.521,0,0,0-.014-.165C5.535,7.776,3.538,8.362,2.264,7.7a2.055,2.055,0,0,1-1.2-1.592L1.069,2.09c0-.619,0-.915-.12-1.044C.8.892.759.824,0,.762L.009.334C.913.266,2.759.015,3.33,0l0,4.021c0,1.318.088,2.311.6,2.692.873.655,2.7-.387,2.823-1.365A22.462,22.462,0,0,0,6.863,2.47,3.186,3.186,0,0,0,6.6.88C6.482.748,6.278.78,5.48.705L5.54.257C6.645.158,7.866.16,8.918.008l.03,5.156c0,.7-.067,1.414.326,1.853a1.447,1.447,0,0,0,.8.381c.2.044.139.137.105.367" transform="translate(66.03 38.779)" fill="#1e1045"/>
  <path id="Fill_25" data-name="Fill 25" d="M.035.76c.03.308,1.395-.569,1.395,1.6V6.23C1.429,7.585.105,7.317.115,7.524c0,.117-.028.341.047.341l4.789,0c.034,0,.081-.382,0-.39A1.319,1.319,0,0,1,3.672,5.952V3.29a1.763,1.763,0,0,1,1.1-1.132c1.776-.558,1.941.718,2.307.706.175-.845.531-1.837.509-2.06A.87.87,0,0,0,6.655.048c-1.5-.044-2.329,1.214-3,2.384C3.644,2.452,3.778,0,3.727,0L0,.407Z" transform="translate(76.657 38.759)" fill="#1e1045"/>
  <path id="Fill_26" data-name="Fill 26" d="M.2,2.53c.135,1.681,1.63,1.849,3.109,2.434,1.747.691,1.568,1.8.69,2.28a2.193,2.193,0,0,1-2.747-.65C.852,6.079.686,5.455.434,5.216c-.062-.06-.365-.034-.4-.034S.019,7.942,0,8.072c-.036.235.688-.5.8-.5.907.012,1.888.608,2.828.386C5.42,7.534,5.937,6.621,5.964,5.328A2.606,2.606,0,0,0,4.043,3a8.485,8.485,0,0,1-2.071-.934C.9,1.2,2.276.4,3.6.825c1.552.5,1.479,1.522,1.507,1.523a2.041,2.041,0,0,1,.33-.007A12.127,12.127,0,0,0,5.48.123c0-.161-.149-.139-.262-.073-.035.02-.1.095-.129.11A1.566,1.566,0,0,1,4.05.188,3.922,3.922,0,0,0,1.57.25,2.223,2.223,0,0,0,.2,2.53" transform="translate(94.249 38.783)" fill="#1e1045"/>
  <path id="Fill_27" data-name="Fill 27" d="M37.219,20.864c-.121-.159-.421-.03-.421-.03L32.023,22.6a17.035,17.035,0,0,0-1.285-2.535l1.548-4.207s.193-.42.016-.522-.47.174-.47.174l-2.811,2.3a12.034,12.034,0,0,0-3.861-2.78,12.255,12.255,0,0,0-1.722-.618l-.871-3.33s-.074-.332-.3-.332-.281.314-.281.314L21.428,14a15.012,15.012,0,0,0-1.893-.121A13.569,13.569,0,0,0,13.946,15a11.993,11.993,0,0,0-1.967,1.115c-.1.071-.2.149-.3.224-.58-1.489-1.037-2.7-1.122-3.069a5.46,5.46,0,0,0,1.164-2.069,3.533,3.533,0,0,0-.083-2.233,6.328,6.328,0,0,1-.5-1.423.9.9,0,0,1,.274-.569.636.636,0,0,0-.587-.565,3.374,3.374,0,0,0-.7.052c-.06-.107-.178-.088-.089-.468.134-.575,1.24-.846,2.144-1.195A2.637,2.637,0,0,0,14,2.219,2.1,2.1,0,0,0,12.822.228a2.741,2.741,0,0,1-1.083,1.12,2,2,0,0,1-1.3.2A1.474,1.474,0,0,0,9.682,0,1.948,1.948,0,0,1,7.959.686c-.936-.028-1-.247-2.311-.244a3.4,3.4,0,0,0-3.61,2.778,3.733,3.733,0,0,0,.6,2.441,6.127,6.127,0,0,0-.879.854.713.713,0,0,0-.952-.074,1.261,1.261,0,0,1,.04.792,10.426,10.426,0,0,0-.839,2.66A3.327,3.327,0,0,0,1.8,13.272a.82.82,0,0,0-.1.854.659.659,0,0,0,.643.333.877.877,0,0,0-.157.931c.157.387.6.952.994.952A6.937,6.937,0,0,0,3.4,17.758a1.46,1.46,0,0,0-.254.911.978.978,0,0,0,.72.952,2.472,2.472,0,0,0,.309.646,2.263,2.263,0,0,0,.549.539,1.825,1.825,0,0,0,1.014.352,4.035,4.035,0,0,0,.908-.04c.009.111.046,1.138.09,2.28a27.424,27.424,0,0,0-1.468,9.25h0c0,6.058,1.733,11.46,5.044,14.937a3.343,3.343,0,0,0,.722.578,37.5,37.5,0,0,1,2.61-3.772A13.388,13.388,0,0,1,15,42.917q1.164-1.006,2.261-1.8a18.989,18.989,0,0,1,6.57-2.889,26.713,26.713,0,0,0-6.261,3.979A23.1,23.1,0,0,0,12.1,48.8a2.589,2.589,0,0,0,1.326.594,35.432,35.432,0,0,1,4.8-6.207,22.784,22.784,0,0,1,15.281-6.218,31.775,31.775,0,0,0,.287-4.317,29.57,29.57,0,0,0-.765-6.881L37.06,21.3s.278-.28.159-.438" fill="#1e1045"/>
  <path id="Fill_28" data-name="Fill 28" d="M2.942,4.485a3.094,3.094,0,0,0-1.384-.426,2.634,2.634,0,0,0-1.381.39.484.484,0,0,1-.118-.623c.112-.272.272-.314.272-.314L.185.971A6.908,6.908,0,0,1,1.093.4.39.39,0,0,0,1.379,0,4.99,4.99,0,0,1,2.416,1.05a2.028,2.028,0,0,1,.39,1.106,6.653,6.653,0,0,1-.058,1.4c.16.137.312.251.331.466a.781.781,0,0,1-.136.465" transform="translate(4.335 14.361)" fill="#fff"/>
  <path id="Fill_29" data-name="Fill 29" d="M.957,4.807A4.868,4.868,0,0,0,0,2.679L6.061,0Z" transform="translate(29.58 21.962)" fill="#fff"/>
  <path id="Fill_30" data-name="Fill 30" d="M0,0,5.129,4.639A3.685,3.685,0,0,0,3.686,6.273Z" transform="translate(13.915 16.761)" fill="#fff"/>
  <path id="Fill_31" data-name="Fill 31" d="M1.971.948a1.75,1.75,0,0,0-.3.764A2.1,2.1,0,0,0,1.7,2.5L.126,1.417A11.916,11.916,0,0,0,.022.136C.018.1.008.045,0,0Z" transform="translate(14.945 25.002)" fill="#fff"/>
  <path id="Fill_32" data-name="Fill 32" d="M2.646,15.127c-.1-.174-.547-9.612-.564-9.944l.506-.367v-.1a1.289,1.289,0,0,1-.935-.371L1.517,1.457A2.292,2.292,0,0,1,.292,1.065.8.8,0,0,1,.135,0,3.58,3.58,0,0,0,1.771.389c.135,0,.421.3.584.371.187.07.5.244.647.309.132.057.215.367.253.484s4.729,12.252,4.806,12.39.354,2.175.37,2.329a14.484,14.484,0,0,0,.858,1.942,3.789,3.789,0,0,0-2.48,1.156A8.14,8.14,0,0,0,5.1,22.724c-.058-.427-2.355-7.422-2.454-7.6" transform="translate(5.605 11.273)" fill="#fff"/>
  <path id="Fill_33" data-name="Fill 33" d="M3.453,7.6a11.816,11.816,0,0,1-1.343,4.639C1.669,12.984.43,14.492,0,15.061a13.324,13.324,0,0,0,.8-4.929,28.526,28.526,0,0,1-.063-5.3A6.082,6.082,0,0,1,2.764.95,3.785,3.785,0,0,1,6.406.159L7.848,2.865a3.283,3.283,0,0,0-2.471.5C4.1,4.349,3.665,5.669,3.453,7.6" transform="translate(10.758 30.413)" fill="#fff"/>
  <path id="Fill_34" data-name="Fill 34" d="M0,7.559a24.564,24.564,0,0,0,.941-3.78A4.986,4.986,0,0,1,2.412.463,2.42,2.42,0,0,1,4.279.047L5.908,3.36a.978.978,0,0,0,.947.453A24.261,24.261,0,0,0,0,7.559" transform="translate(14.352 34.128)" fill="#fff"/>
  <path id="Fill_35" data-name="Fill 35" d="M.166,1.2A1.018,1.018,0,0,0,.143,2.275c.166.309,1.029,1.9,1.029,1.9a9.8,9.8,0,0,0,.742,1.549c.468,0,.974-.012,1.51,0C2.854,4.451,1.55,1.99,1.55,1.99L1.457,0A5.021,5.021,0,0,0,.166,1.2" transform="translate(28.065 29.912)" fill="#fff"/>
  <path id="Fill_36" data-name="Fill 36" d="M0,8.092a6.1,6.1,0,0,1,2.564.252L1.087,0Z" transform="translate(21.276 12.479)" fill="#fff"/>
  <path id="Fill_37" data-name="Fill 37" d="M3.253,1.553c-.038-.116-.12-.427-.253-.483C2.853,1,2.542.83,2.355.758,2.193.693,1.906.389,1.77.389A3.571,3.571,0,0,1,.134,0,.8.8,0,0,0,.292,1.065a2.279,2.279,0,0,0,1.224.392l.137,2.892a1.274,1.274,0,0,0,.935.369v.1l-.506.368c.016.331.465,9.768.563,9.944s2.4,7.169,2.455,7.6a8.088,8.088,0,0,1,1.708-3.355,3.786,3.786,0,0,1,2.479-1.154,14.553,14.553,0,0,1-.858-1.943c-.016-.154-.29-2.194-.368-2.329S3.292,1.672,3.253,1.553" transform="translate(5.605 11.272)" fill="#fff"/>
  <path id="Fill_38" data-name="Fill 38" d="M2.083.861a3.029,3.029,0,0,1,2.263.844A1.223,1.223,0,0,0,3.9.527,2.975,2.975,0,0,0,2.009,0,2.624,2.624,0,0,0,.368.514,1.1,1.1,0,0,0,.03,1.662c.117-.368.961-.805,2.053-.8" transform="translate(3.78 9.65)" fill="#fff"/>
  <path id="Fill_39" data-name="Fill 39" d="M0,2.059A2.155,2.155,0,0,0,.343,3.4c.134.174.45.517.682.5.331-.019.643-.651,1.424-.622.5.019.834.731,1.264.756.331.022.5-.308.841-.343.286-.031.385.112.56.286a1.856,1.856,0,0,1,.722-.776c.525-.389,2.316-.758,3.079-1.437A1.449,1.449,0,0,0,9.26.376,2.689,2.689,0,0,1,7.4,1.242,4.717,4.717,0,0,1,5.738.916.983.983,0,0,0,5.822,0,4.978,4.978,0,0,1,4.044.3C3.617.3,2.779.125,2.13.16A2.1,2.1,0,0,0,0,2.059" transform="translate(3.486 1.524)" fill="#fff"/>
  <path id="Fill_40" data-name="Fill 40" d="M4.691,1.961C7.77,2.02,9.159,3.437,9.2,4.6a2.153,2.153,0,0,0,.115-1.068C9.3,3.224,8.83,2.348,8.809,2.059A2.451,2.451,0,0,1,8.927,1.3c-.2.037-.878.308-1.17.076C7.445,1.127,7.661.5,7.251.351S6.2.68,5.789.621,5.031,0,4.6,0s-.645.523-1.17.641C3.027.732,2.537.487,2.3.5,2.03.523,1.873.73,1.754.984a.647.647,0,0,1-.522.434c-.247.06-.6-.155-.779-.116A1.289,1.289,0,0,1,.535,2.311,4.811,4.811,0,0,0,0,3.655,1.968,1.968,0,0,0,.24,4.64C.16,2.989,2,1.91,4.691,1.961" transform="translate(1.252 6.03)" fill="#fff"/>
  <path id="Fill_41" data-name="Fill 41" d="M1.137,2.133a1.85,1.85,0,0,0-.879.752,1.971,1.971,0,0,0,.563.935,1.832,1.832,0,0,1,.473-.773,3.485,3.485,0,0,1,.544-.309.321.321,0,0,0,.215-.332.869.869,0,0,0-.1-.432c.154-.018.443.005.543-.134a.844.844,0,0,0,.143-.482c0-.177-.079-.215-.253-.234a7.033,7.033,0,0,0-.94-.012s.394-.2.51-.259A.357.357,0,0,0,2.13.58,1.7,1.7,0,0,0,2.092,0,4.43,4.43,0,0,0,.2.774L.415,1.3.028,1.285a1.591,1.591,0,0,0,.1.907,4.7,4.7,0,0,1,1.013-.059" transform="translate(2.868 11.741)" fill="#fff"/>
  <path id="Fill_42" data-name="Fill 42" d="M4.728,16.236h0l-.583-2L5.48,12.369a.418.418,0,0,1-.054.02,9.791,9.791,0,0,1-1.762.516l-.024,0a1.408,1.408,0,0,1-.18.013.647.647,0,0,1-.7-.531,3.932,3.932,0,0,1-.112-.616c0-.151.123-.342.26-.342a.146.146,0,0,1,.03,0,.74.74,0,0,0,.138.013.486.486,0,0,0,.271-.07L3.631,11c-.105-.014-.219-.035-.319-.055a2.055,2.055,0,0,0-.3-.045,1.069,1.069,0,0,0-.3.083c-.076.028-.154.057-.232.079-.077-.056-.3-.224-.24-.445H3.787l.029-.179a5.32,5.32,0,0,0-1.106-.371H2.682a.517.517,0,0,0-.412.167v-.29l.877-.737-.907-.37-.5.088.322-2.039-.171-.355-.885.529L.983,5.909c.026-.219.444-.623.772-.811L1.7,4.4c-.1.06-.2.113-.3.165a1.808,1.808,0,0,0-.676.5,1.9,1.9,0,0,0-.44,1.105,1.09,1.09,0,0,1-.261-.951A1.66,1.66,0,0,1,.66,4.182,3.136,3.136,0,0,1,.632,2.7,3.707,3.707,0,0,1,4.459,0h.016A8.627,8.627,0,0,1,9.1,1.892a8.165,8.165,0,0,1,2.64,2.728l.01.048a.955.955,0,0,1,.022.475c-.174-.231-1.422-1.415-1.435-1.427l-.787,1,1.49,1.3a1.848,1.848,0,0,1-1.008.309,2.222,2.222,0,0,1-.277-.018C9.06,6.223,7.528,5.268,7.5,4.5a9.274,9.274,0,0,0-3.139-.671H4.284a7.487,7.487,0,0,0-1.87.291.47.47,0,0,1-.151.025.818.818,0,0,1-.375-.123C1.845,4,1.8,3.979,1.755,3.96l-.094.058.579.891a.228.228,0,0,0,.105.022,1.391,1.391,0,0,0,.369-.087,3.693,3.693,0,0,1,.49-.131,3.823,3.823,0,0,1,.672-.057,4.118,4.118,0,0,1,1.987.488A21.543,21.543,0,0,1,8.286,7.066,1.068,1.068,0,0,0,9,7.379a.506.506,0,0,0,.339-.111.543.543,0,0,1,.341-.143.2.2,0,0,1,.156.058.181.181,0,0,1,.039.147c-.006.056-.017.114-.027.17-.039.209-.075.406.136.5a.3.3,0,0,0,.125.029.492.492,0,0,0,.3-.162,1.332,1.332,0,0,1,.123-.1.541.541,0,0,1,.3-.1.517.517,0,0,1,.256.074,3.828,3.828,0,0,1-.848,1.019,1.707,1.707,0,0,1-.946.408A.569.569,0,0,1,9.1,9.131l-.2.5,1.461,3.35c.144.29.243.5.323.676a7.1,7.1,0,0,0,.423.815,32.906,32.906,0,0,0-6.381,1.766ZM4.395,5.6a1.839,1.839,0,0,0-.382.039,5.223,5.223,0,0,0-1.246.5v.524a2.089,2.089,0,0,1,.817.671l.461-.116-.2-.32.007,0a1.933,1.933,0,0,1,.633-.142c.041,0,.082,0,.122,0a1.328,1.328,0,0,1,.843.231L6.46,6.739l.133-.211A3.942,3.942,0,0,0,4.395,5.6ZM7.177,1.648,6.623,3.074A14.726,14.726,0,0,1,8.9,4.217l.73-1.025A20.6,20.6,0,0,0,7.177,1.648Zm-5.17.117a2.334,2.334,0,0,0-.763,2.069A7.33,7.33,0,0,1,2.5,2.9ZM4.5,2.608h0a2.976,2.976,0,0,1,1.364.237l.263-1.517A4.182,4.182,0,0,0,4.372.947a3.038,3.038,0,0,0-1.635.437L3.2,2.726A6.54,6.54,0,0,1,4.5,2.608Z" transform="translate(17.466 21.422)" fill="#fff"/>
  <path id="Fill_43" data-name="Fill 43" d="M0,5.117A11.574,11.574,0,0,1,2.093,6.582L5.19,0Z" transform="translate(26.168 16.728)" fill="#fff"/>
</svg>
