<svg id="_32px" data-name="32px" xmlns="http://www.w3.org/2000/svg" width="24" height="24" viewBox="0 0 24 24">
  <g id="Neutral_32px" data-name="Neutral 32px">
    <path id="Neutral_32px-2" data-name="Neutral 32px" d="M0,12A12,12,0,1,1,12,24,12.013,12.013,0,0,1,0,12Zm1.075,0A10.925,10.925,0,1,0,12,1.075,10.938,10.938,0,0,0,1.075,12Zm6.207,5.4a.531.531,0,0,1,0-1.062h9.438a.531.531,0,1,1,0,1.062Zm7.354-7.865a1.5,1.5,0,1,1,1.5,1.5A1.5,1.5,0,0,1,14.635,9.534Zm-8.271,0a1.5,1.5,0,1,1,1.5,1.5A1.5,1.5,0,0,1,6.364,9.534Z" fill="none"/>
    <path id="Neutral_32px-3" data-name="Neutral 32px" d="M0,12A12,12,0,1,1,12,24,12.013,12.013,0,0,1,0,12Zm1.075,0A10.925,10.925,0,1,0,12,1.075,10.938,10.938,0,0,0,1.075,12Zm6.207,5.4a.531.531,0,0,1,0-1.062h9.438a.531.531,0,1,1,0,1.062Zm7.354-7.865a1.5,1.5,0,1,1,1.5,1.5A1.5,1.5,0,0,1,14.635,9.534Zm-8.271,0a1.5,1.5,0,1,1,1.5,1.5A1.5,1.5,0,0,1,6.364,9.534Z" fill="none"/>
    <path id="Neutral_32px-4" data-name="Neutral 32px" d="M0,12A12,12,0,1,1,12,24,12.013,12.013,0,0,1,0,12Zm1.075,0A10.925,10.925,0,1,0,12,1.075,10.938,10.938,0,0,0,1.075,12Zm6.207,5.4a.531.531,0,0,1,0-1.062h9.438a.531.531,0,1,1,0,1.062Zm7.354-7.865a1.5,1.5,0,1,1,1.5,1.5A1.5,1.5,0,0,1,14.635,9.534Zm-8.271,0a1.5,1.5,0,1,1,1.5,1.5A1.5,1.5,0,0,1,6.364,9.534Z" fill="none"/>
    <path id="Neutral_32px-5" data-name="Neutral 32px" d="M0,12A12,12,0,1,1,12,24,12.013,12.013,0,0,1,0,12Zm1.075,0A10.925,10.925,0,1,0,12,1.075,10.938,10.938,0,0,0,1.075,12Zm6.207,5.4a.531.531,0,0,1,0-1.062h9.438a.531.531,0,1,1,0,1.062Zm7.354-7.865a1.5,1.5,0,1,1,1.5,1.5A1.5,1.5,0,0,1,14.635,9.534Zm-8.271,0a1.5,1.5,0,1,1,1.5,1.5A1.5,1.5,0,0,1,6.364,9.534Z" fill="none"/>
    <path id="Neutral_32px-6" data-name="Neutral 32px" d="M0,12A12,12,0,1,1,12,24,12.013,12.013,0,0,1,0,12Zm1.075,0A10.925,10.925,0,1,0,12,1.075,10.938,10.938,0,0,0,1.075,12Zm6.207,5.4a.531.531,0,0,1,0-1.062h9.438a.531.531,0,1,1,0,1.062Zm7.354-7.865a1.5,1.5,0,1,1,1.5,1.5A1.5,1.5,0,0,1,14.635,9.534Zm-8.271,0a1.5,1.5,0,1,1,1.5,1.5A1.5,1.5,0,0,1,6.364,9.534Z" fill="none"/>
    <path id="Neutral_32px-7" data-name="Neutral 32px" d="M0,12A12,12,0,1,1,12,24,12.013,12.013,0,0,1,0,12Zm1.075,0A10.925,10.925,0,1,0,12,1.075,10.938,10.938,0,0,0,1.075,12Zm6.207,5.4a.531.531,0,0,1,0-1.062h9.438a.531.531,0,1,1,0,1.062Zm7.354-7.865a1.5,1.5,0,1,1,1.5,1.5A1.5,1.5,0,0,1,14.635,9.534Zm-8.271,0a1.5,1.5,0,1,1,1.5,1.5A1.5,1.5,0,0,1,6.364,9.534Z" fill="#1a1446"/>
  </g>
</svg>
